<?xml version="1.0" encoding="UTF-8"?>
<!DOCTYPE svg PUBLIC "-//W3C//DTD SVG 1.1//EN" "http://www.w3.org/Graphics/SVG/1.1/DTD/svg11.dtd">
<!-- Creator: CorelDRAW X7 -->
<svg xmlns="http://www.w3.org/2000/svg" xml:space="preserve" width="210mm" height="297mm" version="1.1" style="shape-rendering:geometricPrecision; text-rendering:geometricPrecision; image-rendering:optimizeQuality; fill-rule:evenodd; clip-rule:evenodd"
viewBox="0 0 21000 29700"
 xmlns:xlink="http://www.w3.org/1999/xlink">
 <defs>
  <style type="text/css">
   <![CDATA[
    .fil0 {fill:#000029}
    .fil1 {fill:#FFED00;fill-rule:nonzero}
   ]]>
  </style>
 </defs>
 <g id="Слой_x0020_1">
  <metadata id="CorelCorpID_0Corel-Layer"/>
  <rect class="fil0" x="5551" y="13466" width="9897" height="2768"/>
  <path class="fil1" d="M6309 14032l41 -267 82 0 0 375 -56 0 0 -269 -41 269 -56 0 -43 -265 0 265 -52 0 0 -375 82 0 43 267zm222 52l0 56 -57 0 0 -56 57 0zm89 -319l0 145c0,14 2,23 8,28 5,6 13,8 22,8 9,0 16,-2 22,-7 5,-5 8,-13 9,-25l0 -149 59 0 0 375 -59 0 0 -144c-5,2 -10,3 -16,4 -5,0 -10,1 -16,1 -29,0 -51,-9 -66,-25 -15,-16 -22,-39 -22,-70l0 -141 59 0zm221 158l81 0 0 54 -81 0 0 110 102 0 0 53 -161 0 0 -375 161 0 0 54 -102 0 0 104zm224 -158c29,0 52,8 66,24 14,16 22,39 22,69l0 49c0,30 -8,53 -22,69 -14,16 -37,23 -66,23l-28 0 0 141 -59 0 0 -375 87 0zm-28 54l0 127 28 0c9,0 16,-3 21,-8 5,-5 8,-14 8,-27l0 -57c0,-13 -3,-23 -8,-28 -5,-5 -12,-7 -21,-7l-28 0zm201 321l-59 0 0 -375 59 0 0 161 67 0 0 -161 60 0 0 375 -60 0 0 -160 -67 0 0 160zm170 -375l59 0 0 375 -59 0 0 -375zm191 0c31,0 53,7 67,22 13,14 20,36 20,65l0 13c0,19 -3,35 -9,48 -6,12 -16,21 -29,28 16,6 28,16 34,29 7,14 10,31 10,51l0 30c0,29 -7,51 -22,67 -15,15 -38,22 -67,22l-93 0 0 -375 89 0zm-30 207l0 115 34 0c10,0 17,-3 22,-8 6,-6 8,-15 8,-29l0 -33c0,-17 -3,-29 -9,-36 -6,-6 -15,-9 -29,-9l-26 0zm0 -153l0 99 23 0c11,0 20,-3 26,-9 6,-5 9,-16 9,-31l0 -21c0,-13 -2,-23 -7,-29 -5,-6 -12,-9 -23,-9l-28 0zm217 268l67 0 0 -322 60 0 0 322 30 0 0 96 -60 0 0 -43 -156 0 0 -375 59 0 0 322zm178 -322l59 0 0 375 -59 0 0 -375z"/>
  <path class="fil1" d="M8259 13953c0,-11 2,-20 6,-29 4,-9 10,-17 16,-24 7,-7 15,-12 24,-16 9,-4 19,-6 29,-6 10,0 20,2 29,6 9,4 17,9 24,16 6,7 12,15 15,24 4,9 6,18 6,29 0,10 -2,20 -6,29 -3,9 -9,17 -15,24 -7,6 -15,11 -24,15 -9,4 -19,6 -29,6 -10,0 -20,-2 -29,-6 -9,-4 -17,-9 -24,-15 -6,-7 -12,-15 -16,-24 -4,-9 -6,-19 -6,-29zm374 -188c31,0 53,7 67,22 14,14 21,36 21,65l0 13c0,19 -3,35 -9,48 -7,12 -16,21 -29,28 16,6 27,16 34,29 6,14 10,31 10,51l0 30c0,29 -8,51 -23,67 -15,15 -37,22 -67,22l-93 0 0 -375 89 0zm-30 207l0 115 34 0c10,0 18,-3 23,-8 5,-6 8,-15 8,-29l0 -33c0,-17 -3,-29 -9,-36 -6,-6 -16,-9 -29,-9l-27 0zm0 -153l0 99 23 0c11,0 20,-3 26,-9 7,-5 10,-16 10,-31l0 -21c0,-13 -3,-23 -8,-29 -4,-6 -12,-9 -22,-9l-29 0zm174 268c4,0 7,0 11,0 3,0 7,0 10,0 4,0 9,0 13,-1 4,-1 8,-3 11,-6 3,-3 5,-7 7,-13 1,-5 2,-12 2,-20l-86 -282 59 0 65 220 54 -220 59 0 -78 277c-6,25 -13,45 -20,59 -7,14 -15,24 -22,29 -8,6 -17,10 -26,10 -9,1 -19,1 -30,1 -6,0 -10,0 -15,0 -4,0 -9,0 -14,-1l0 -53zm397 -268l-69 0 0 228c0,19 -2,35 -7,47 -4,12 -11,21 -18,28 -8,7 -17,12 -27,15 -11,3 -21,4 -32,4 -6,0 -11,0 -15,0 -4,0 -9,0 -14,-1l0 -53c3,0 7,0 10,0 4,0 7,0 11,0 9,0 17,-2 23,-7 7,-4 10,-14 10,-29l0 -286 187 0 0 375 -59 0 0 -321zm158 265l0 56 -56 0 0 -56 56 0zm185 56l-59 0 0 -375 156 0 0 54 -97 0 0 321zm178 -86c0,14 2,23 8,29 5,5 13,8 22,8 9,0 17,-3 22,-8 6,-6 9,-15 9,-29l0 -202c0,-14 -3,-24 -9,-29 -5,-6 -13,-8 -22,-8 -9,0 -17,2 -22,8 -6,5 -8,15 -8,29l0 202zm-59 -199c0,-30 7,-53 23,-70 15,-16 37,-24 66,-24 29,0 51,8 67,24 15,17 23,40 23,70l0 195c0,31 -8,54 -23,70 -16,17 -38,25 -67,25 -29,0 -51,-8 -66,-25 -16,-16 -23,-39 -23,-70l0 -195zm382 -36l-69 0 0 228c0,19 -2,35 -7,47 -5,12 -11,21 -19,28 -8,7 -17,12 -27,15 -10,3 -21,4 -32,4 -5,0 -10,0 -14,0 -4,0 -9,0 -14,-1l0 -53c3,0 7,0 10,0 4,0 7,0 10,0 10,0 18,-2 24,-7 7,-4 10,-14 10,-29l0 -286 187 0 0 375 -59 0 0 -321zm155 235c0,14 3,23 8,29 6,5 13,8 22,8 10,0 17,-3 23,-8 5,-6 8,-15 8,-29l0 -202c0,-14 -3,-24 -8,-29 -6,-6 -13,-8 -23,-8 -9,0 -16,2 -22,8 -5,5 -8,15 -8,29l0 202zm-59 -199c0,-30 8,-53 23,-70 15,-16 38,-24 66,-24 29,0 52,8 67,24 15,17 23,40 23,70l0 195c0,31 -8,54 -23,70 -15,17 -38,25 -67,25 -28,0 -51,-8 -66,-25 -15,-16 -23,-39 -23,-70l0 -195zm305 -90c31,0 53,7 67,22 14,14 21,36 21,65l0 13c0,19 -3,35 -9,48 -6,12 -16,21 -29,28 16,6 27,16 34,29 6,14 10,31 10,51l0 30c0,29 -8,51 -23,67 -15,15 -37,22 -67,22l-93 0 0 -375 89 0zm-30 207l0 115 34 0c10,0 18,-3 23,-8 5,-6 8,-15 8,-29l0 -33c0,-17 -3,-29 -9,-36 -6,-6 -16,-9 -29,-9l-27 0zm0 -153l0 99 23 0c11,0 20,-3 26,-9 7,-5 10,-16 10,-31l0 -21c0,-13 -3,-23 -7,-29 -5,-6 -13,-9 -23,-9l-29 0zm217 321l-59 0 0 -375 59 0 0 161 67 0 0 -161 60 0 0 375 -60 0 0 -160 -67 0 0 160zm360 0l-59 0 -10 -68 -73 0 -10 68 -54 0 60 -375 86 0 60 375zm-134 -119l57 0 -29 -189 -28 189zm161 119l0 -56 57 0 0 50 -26 60 -24 0 16 -54 -23 0zm300 -283c0,-16 -3,-28 -9,-34 -5,-5 -13,-8 -22,-8 -9,0 -17,2 -22,8 -6,5 -9,15 -9,29l0 40 -55 0 0 -37c0,-30 7,-53 22,-70 15,-16 37,-24 66,-24 29,0 50,8 65,24 15,17 22,40 22,70 0,21 -3,39 -9,56 -6,16 -14,31 -23,45 -9,13 -19,26 -30,37 -11,11 -21,22 -29,32 -9,10 -15,20 -20,30 -5,10 -7,21 -5,32l111 0 0 53 -170 0 0 -46c0,-18 3,-34 8,-48 6,-14 13,-27 22,-38 9,-12 18,-23 28,-33 10,-10 20,-21 28,-32 9,-12 16,-24 22,-38 6,-13 9,-29 9,-48zm149 197c0,14 3,23 8,29 6,5 13,8 23,8 9,0 16,-3 22,-8 5,-6 8,-15 8,-29l0 -202c0,-14 -3,-24 -8,-29 -6,-6 -13,-8 -22,-8 -10,0 -17,2 -23,8 -5,5 -8,15 -8,29l0 202zm-59 -199c0,-30 8,-53 23,-70 15,-16 38,-24 67,-24 28,0 51,8 66,24 15,17 23,40 23,70l0 195c0,31 -8,54 -23,70 -15,17 -38,25 -66,25 -29,0 -52,-8 -67,-25 -15,-16 -23,-39 -23,-70l0 -195zm271 199c0,14 3,23 8,29 6,5 13,8 23,8 9,0 16,-3 22,-8 5,-6 8,-15 8,-29l0 -202c0,-14 -3,-24 -8,-29 -6,-6 -13,-8 -22,-8 -10,0 -17,2 -23,8 -5,5 -8,15 -8,29l0 202zm-59 -199c0,-30 8,-53 23,-70 16,-16 38,-24 67,-24 29,0 51,8 66,24 15,17 23,40 23,70l0 195c0,31 -8,54 -23,70 -15,17 -37,25 -66,25 -29,0 -51,-8 -67,-25 -15,-16 -23,-39 -23,-70l0 -195zm217 285l0 -56 57 0 0 50 -26 60 -24 0 16 -54 -23 0zm343 -149l-18 34 0 115 -59 0 0 -375 59 0 0 164 78 -164 58 0 -82 167 82 208 -61 0 -57 -149zm198 63c0,14 3,23 9,29 5,5 12,8 22,8 9,0 16,-3 22,-8 6,-6 8,-15 8,-29l0 -202c0,-14 -2,-24 -8,-29 -6,-6 -13,-8 -22,-8 -10,0 -17,2 -22,8 -6,5 -9,15 -9,29l0 202zm-59 -199c0,-30 8,-53 23,-70 16,-16 38,-24 67,-24 29,0 51,8 66,24 16,17 23,40 23,70l0 195c0,31 -7,54 -23,70 -15,17 -37,25 -66,25 -29,0 -51,-8 -67,-25 -15,-16 -23,-39 -23,-70l0 -195zm304 -90c29,0 51,8 66,24 14,16 21,39 21,69l0 49c0,30 -7,53 -21,69 -15,16 -37,23 -66,23l-28 0 0 141 -59 0 0 -375 87 0zm-28 54l0 127 28 0c9,0 16,-3 21,-8 5,-5 7,-14 7,-27l0 -57c0,-13 -2,-23 -7,-28 -5,-5 -12,-7 -21,-7l-28 0zm201 321l-59 0 0 -375 186 0 0 375 -60 0 0 -321 -67 0 0 321zm186 -53c3,0 7,0 10,0 4,0 7,0 10,0 5,0 9,0 13,-1 5,-1 8,-3 11,-6 3,-3 6,-7 7,-13 2,-5 3,-12 3,-20l-86 -282 59 0 65 220 53 -220 59 0 -77 277c-7,25 -14,45 -21,59 -7,14 -14,24 -22,29 -8,6 -16,10 -25,10 -9,1 -20,1 -31,1 -5,0 -10,0 -14,0 -4,0 -9,0 -14,-1l0 -53zm401 -86l0 49c0,31 -7,54 -22,70 -15,17 -37,25 -66,25 -29,0 -50,-8 -65,-25 -15,-16 -23,-39 -23,-70l0 -195c0,-30 8,-53 23,-70 15,-16 36,-24 65,-24 29,0 51,8 66,24 15,17 22,40 22,70l0 37 -56 0 0 -40c0,-14 -2,-24 -8,-29 -5,-6 -13,-8 -22,-8 -9,0 -17,2 -22,8 -6,5 -9,15 -9,29l0 202c0,14 3,23 9,28 5,6 13,9 22,9 9,0 17,-3 22,-9 6,-5 8,-14 8,-28l0 -53 56 0zm180 -95l28 0c29,0 51,8 66,24 14,16 21,39 21,69l0 49c0,30 -7,53 -21,69 -15,15 -37,23 -66,23l-87 0 0 -375 156 0 0 54 -97 0 0 87zm28 181c9,0 16,-3 21,-8 5,-5 7,-14 7,-28l0 -56c0,-13 -2,-23 -7,-28 -5,-5 -12,-7 -21,-7l-28 0 0 127 28 0zm122 53l0 -56 57 0 0 50 -26 60 -24 0 16 -54 -23 0zm236 -86c0,14 3,23 9,29 5,5 13,8 22,8 9,0 17,-3 22,-8 6,-6 9,-15 9,-29l0 -202c0,-14 -3,-24 -9,-29 -5,-6 -13,-8 -22,-8 -9,0 -17,2 -22,8 -6,5 -9,15 -9,29l0 202zm-58 -199c0,-30 7,-53 23,-70 15,-16 37,-24 66,-24 29,0 51,8 66,24 16,17 23,40 23,70l0 195c0,31 -7,54 -23,70 -15,17 -37,25 -66,25 -29,0 -51,-8 -66,-25 -16,-16 -23,-39 -23,-70l0 -195zm318 219l-28 0c-29,0 -51,-7 -66,-23 -14,-16 -21,-39 -21,-69l0 -103c0,-30 7,-53 21,-69 15,-15 37,-23 66,-23l28 0 0 -22 59 0 0 22 28 0c30,0 52,8 66,23 15,16 22,39 22,69l0 103c0,30 -7,53 -22,69 -14,16 -36,23 -66,23l-28 0 0 66 -59 0 0 -66zm59 -234l0 181 28 0c9,0 16,-3 21,-8 5,-5 8,-14 8,-27l0 -110c0,-14 -3,-23 -8,-28 -5,-5 -12,-8 -21,-8l-28 0zm-87 0c-9,0 -16,3 -21,8 -5,5 -8,14 -8,28l0 110c0,13 3,22 8,27 5,5 12,8 21,8l28 0 0 -181 -28 0zm289 244l0 56 -57 0 0 -56 57 0zm157 -227c0,-16 -3,-28 -9,-34 -5,-5 -13,-8 -22,-8 -9,0 -17,2 -22,8 -6,5 -9,15 -9,29l0 24 -55 0 0 -21c0,-30 7,-53 22,-70 15,-16 37,-24 66,-24 29,0 50,8 65,24 15,17 22,40 22,70l0 10c0,40 -13,66 -41,77 15,7 26,16 32,30 6,13 9,30 9,49l0 29c0,31 -7,54 -22,70 -15,17 -36,25 -65,25 -29,0 -51,-8 -66,-25 -15,-16 -22,-39 -22,-70l0 -31 55 0 0 35c0,14 3,23 9,29 5,5 13,8 22,8 9,0 17,-3 22,-9 6,-5 9,-16 9,-33l0 -30c0,-17 -3,-30 -10,-37 -6,-7 -15,-10 -29,-10l-20 0 0 -54 23 0c11,0 20,-3 26,-9 6,-5 10,-16 10,-31l0 -21zm215 0c0,-16 -3,-28 -8,-34 -6,-5 -13,-8 -23,-8 -9,0 -16,2 -22,8 -5,5 -8,15 -8,29l0 40 -56 0 0 -37c0,-30 8,-53 22,-70 15,-16 37,-24 66,-24 29,0 51,8 66,24 14,17 22,40 22,70 0,21 -3,39 -10,56 -6,16 -14,31 -23,45 -9,13 -19,26 -30,37 -11,11 -20,22 -29,32 -8,10 -15,20 -20,30 -5,10 -7,21 -5,32l111 0 0 53 -170 0 0 -46c0,-18 3,-34 9,-48 5,-14 13,-27 21,-38 9,-12 19,-23 29,-33 10,-10 19,-21 28,-32 8,-12 16,-24 21,-38 6,-13 9,-29 9,-48z"/>
  <path class="fil1" d="M8123 14084l0 56 -57 0 0 -56 57 0zm0 -205l0 57 -57 0 0 -57 57 0z"/>
  <path class="fil1" d="M7000 14537c0,-10 2,-20 6,-29 4,-9 9,-17 16,-23 7,-7 14,-12 24,-16 9,-4 18,-6 29,-6 10,0 20,2 29,6 9,4 17,9 24,16 6,6 11,14 15,23 4,9 6,19 6,29 0,11 -2,20 -6,29 -4,10 -9,17 -15,24 -7,7 -15,12 -24,16 -9,4 -19,6 -29,6 -11,0 -20,-2 -29,-6 -10,-4 -17,-9 -24,-16 -7,-7 -12,-14 -16,-24 -4,-9 -6,-18 -6,-29zm374 -187c31,0 53,7 67,21 14,14 21,36 21,65l0 13c0,20 -3,36 -10,48 -6,13 -15,22 -28,28 16,6 27,16 34,30 6,13 9,30 9,50l0 31c0,29 -7,51 -22,66 -15,15 -37,23 -67,23l-93 0 0 -375 89 0zm-30 206l0 115 34 0c10,0 18,-2 23,-8 5,-5 8,-15 8,-29l0 -32c0,-18 -3,-30 -9,-36 -6,-7 -16,-10 -30,-10l-26 0zm0 -153l0 99 23 0c11,0 20,-2 26,-8 7,-6 10,-16 10,-31l0 -21c0,-14 -3,-23 -8,-30 -4,-6 -12,-9 -22,-9l-29 0zm174 268c4,1 7,1 11,1 3,0 6,0 10,0 4,0 9,-1 13,-2 4,-1 8,-3 11,-6 3,-3 5,-7 7,-12 1,-5 2,-12 2,-20l-86 -282 59 0 65 219 54 -219 58 0 -77 276c-6,26 -13,46 -20,59 -7,14 -15,24 -23,30 -7,6 -16,9 -25,10 -9,0 -19,1 -30,1 -6,0 -10,0 -15,0 -4,0 -9,-1 -14,-1l0 -54zm397 -268l-69 0 0 229c0,18 -2,34 -7,46 -4,12 -11,22 -19,29 -7,7 -16,12 -27,15 -10,2 -20,4 -31,4 -6,0 -11,0 -15,0 -4,0 -9,-1 -14,-1l0 -54c3,1 7,1 10,1 4,0 7,0 11,0 9,0 17,-3 23,-7 7,-5 10,-15 10,-29l0 -286 187 0 0 375 -59 0 0 -322zm158 265l0 57 -56 0 0 -57 56 0zm297 -83l0 50c0,30 -8,53 -23,70 -14,16 -36,24 -65,24 -29,0 -51,-8 -66,-24 -15,-17 -22,-40 -22,-70l0 -195c0,-31 7,-54 22,-70 15,-16 37,-25 66,-25 29,0 51,9 65,25 15,16 23,39 23,70l0 36 -56 0 0 -40c0,-14 -3,-23 -8,-29 -6,-5 -13,-8 -23,-8 -9,0 -16,3 -22,8 -5,6 -8,15 -8,29l0 203c0,13 3,23 8,28 6,5 13,8 22,8 10,0 17,-3 23,-8 5,-5 8,-15 8,-28l0 -54 56 0zm114 -10l-18 35 0 115 -59 0 0 -375 59 0 0 163 78 -163 58 0 -82 167 82 208 -60 0 -58 -150zm198 64c0,13 3,23 9,28 5,6 13,8 22,8 9,0 17,-2 22,-8 6,-5 8,-15 8,-28l0 -203c0,-14 -2,-23 -8,-29 -5,-5 -13,-8 -22,-8 -9,0 -17,3 -22,8 -6,6 -9,15 -9,29l0 203zm-59 -199c0,-31 8,-54 24,-70 15,-16 37,-25 66,-25 29,0 51,9 66,25 16,16 23,39 23,70l0 195c0,30 -7,53 -23,70 -15,16 -37,24 -66,24 -29,0 -51,-8 -66,-24 -16,-17 -24,-40 -24,-70l0 -195zm306 -90c31,0 53,7 67,21 13,14 20,36 20,65l0 13c0,20 -3,36 -9,48 -6,13 -16,22 -29,28 16,6 28,16 34,30 7,13 10,30 10,50l0 31c0,29 -7,51 -22,66 -15,15 -38,23 -67,23l-93 0 0 -375 89 0zm-30 206l0 115 34 0c10,0 17,-2 22,-8 6,-5 8,-15 8,-29l0 -32c0,-18 -3,-30 -9,-36 -6,-7 -15,-10 -29,-10l-26 0zm0 -153l0 99 23 0c11,0 20,-2 26,-8 6,-6 9,-16 9,-31l0 -21c0,-14 -2,-23 -7,-30 -5,-6 -12,-9 -23,-9l-28 0zm211 236c0,13 3,23 9,28 5,6 13,8 22,8 9,0 17,-2 22,-8 6,-5 9,-15 9,-28l0 -203c0,-14 -3,-23 -9,-29 -5,-5 -13,-8 -22,-8 -9,0 -17,3 -22,8 -6,6 -9,15 -9,29l0 203zm-58 -199c0,-31 7,-54 23,-70 15,-16 37,-25 66,-25 29,0 51,9 66,25 16,16 23,39 23,70l0 195c0,30 -7,53 -23,70 -15,16 -37,24 -66,24 -29,0 -51,-8 -66,-24 -16,-17 -23,-40 -23,-70l0 -195zm303 -90c29,0 51,8 66,23 14,16 22,39 22,69l0 49c0,31 -8,54 -22,69 -15,16 -37,24 -66,24l-28 0 0 141 -59 0 0 -375 87 0zm-28 53l0 127 28 0c9,0 16,-2 21,-7 5,-5 8,-14 8,-28l0 -56c0,-14 -3,-23 -8,-28 -5,-5 -12,-8 -21,-8l-28 0zm196 236c0,13 3,23 8,28 6,6 13,8 22,8 10,0 17,-2 23,-8 5,-5 8,-15 8,-28l0 -203c0,-14 -3,-23 -8,-29 -6,-5 -13,-8 -23,-8 -9,0 -16,3 -22,8 -5,6 -8,15 -8,29l0 203zm-59 -199c0,-31 8,-54 23,-70 15,-16 38,-25 66,-25 29,0 52,9 67,25 15,16 23,39 23,70l0 195c0,30 -8,53 -23,70 -15,16 -38,24 -67,24 -28,0 -51,-8 -66,-24 -15,-17 -23,-40 -23,-70l0 -195zm195 231c3,1 7,1 10,1 4,0 7,0 10,0 10,0 18,-3 24,-7 7,-5 10,-15 10,-29l0 -286 187 0 0 321 30 0 0 97 -60 0 0 -43 -151 0 0 43 -60 0 0 -97zm113 -39c0,15 -2,28 -5,39l74 0 0 -268 -69 0 0 229zm242 93l-60 0 0 -375 52 0 0 224 61 -224 74 0 0 375 -53 0 0 -272 -74 272zm169 0l0 -57 57 0 0 51 -25 59 -25 0 16 -53 -23 0zm236 -121l0 35c0,13 3,23 8,28 6,5 13,8 23,8 9,0 16,-3 22,-8 5,-5 8,-15 8,-28l0 -83c0,-14 -3,-23 -8,-29 -6,-5 -13,-8 -22,-8 -10,0 -17,3 -23,8 -5,6 -8,15 -8,29l0 11 -56 0 11 -217 156 0 0 53 -103 0 -5 90c11,-18 29,-28 52,-28 22,0 38,8 49,22 11,15 16,36 16,64l0 84c0,30 -7,53 -22,70 -15,16 -37,24 -66,24 -29,0 -50,-8 -65,-24 -15,-17 -23,-40 -23,-70l0 -31 56 0zm252 -67c0,-10 2,-20 6,-29 4,-9 10,-17 16,-23 7,-7 15,-12 24,-16 9,-4 19,-6 29,-6 10,0 20,2 29,6 9,4 17,9 24,16 6,6 12,14 16,23 3,9 5,19 5,29 0,11 -2,20 -5,29 -4,10 -10,17 -16,24 -7,7 -15,12 -24,16 -9,4 -19,6 -29,6 -10,0 -20,-2 -29,-6 -9,-4 -17,-9 -24,-16 -6,-7 -12,-14 -16,-24 -4,-9 -6,-18 -6,-29zm363 38l-19 35 0 115 -59 0 0 -375 59 0 0 163 79 -163 57 0 -81 167 81 208 -60 0 -57 -150zm205 150l-61 0 0 -375 53 0 0 224 60 -224 74 0 0 375 -53 0 0 -272 -73 272zm335 -54l47 0 0 -321 60 0 0 375 -273 0 0 -375 58 0 0 321 49 0 0 -321 59 0 0 321zm210 54l-60 0 0 -375 52 0 0 224 61 -224 74 0 0 375 -53 0 0 -272 -74 272zm228 0l-59 0 0 -375 59 0 0 160 67 0 0 -160 60 0 0 375 -60 0 0 -161 -67 0 0 161zm170 -375l59 0 0 375 -59 0 0 -375zm191 0c31,0 53,7 67,21 13,14 20,36 20,65l0 13c0,20 -3,36 -9,48 -6,13 -16,22 -29,28 16,6 28,16 34,30 7,13 10,30 10,50l0 31c0,29 -7,51 -22,66 -15,15 -38,23 -67,23l-93 0 0 -375 89 0zm-30 206l0 115 34 0c10,0 17,-2 22,-8 6,-5 8,-15 8,-29l0 -32c0,-18 -3,-30 -9,-36 -6,-7 -15,-10 -29,-10l-26 0zm0 -153l0 99 23 0c11,0 20,-2 26,-8 6,-6 9,-16 9,-31l0 -21c0,-14 -2,-23 -7,-30 -5,-6 -12,-9 -23,-9l-28 0zm328 182l0 50c0,30 -7,53 -22,70 -15,16 -37,24 -66,24 -29,0 -50,-8 -65,-24 -15,-17 -22,-40 -22,-70l0 -195c0,-31 7,-54 22,-70 15,-16 36,-25 65,-25 29,0 51,9 66,25 15,16 22,39 22,70l0 36 -55 0 0 -40c0,-14 -3,-23 -9,-29 -5,-5 -13,-8 -22,-8 -9,0 -17,3 -22,8 -6,6 -9,15 -9,29l0 203c0,13 3,23 9,28 5,5 13,8 22,8 9,0 17,-3 22,-8 6,-5 9,-15 9,-28l0 -54 55 0zm125 86c9,0 16,-2 21,-7 5,-5 7,-15 7,-28l0 -56c0,-14 -2,-23 -7,-28 -5,-5 -12,-8 -21,-8l-28 0 0 127 28 0zm-87 54l0 -375 59 0 0 141 28 0c29,0 51,8 66,23 14,16 21,39 21,69l0 49c0,30 -7,53 -21,69 -15,16 -37,24 -66,24l-87 0zm278 -150l-18 35 0 115 -59 0 0 -375 59 0 0 163 78 -163 58 0 -82 167 82 208 -60 0 -58 -150zm335 150l-59 0 -11 -68 -72 0 -10 68 -54 0 60 -375 86 0 60 375zm-134 -119l56 0 -28 -190 -28 190zm161 119l0 -57 57 0 0 51 -26 59 -24 0 15 -53 -22 0zm299 -283c0,-17 -2,-28 -8,-34 -5,-6 -13,-9 -22,-9 -9,0 -17,3 -22,8 -6,6 -9,15 -9,29l0 40 -55 0 0 -36c0,-31 7,-54 22,-70 15,-16 37,-25 65,-25 29,0 51,9 66,25 15,16 22,39 22,70 0,20 -3,39 -9,55 -6,16 -14,31 -23,45 -10,14 -20,26 -30,37 -11,11 -21,22 -29,32 -9,11 -16,21 -21,31 -5,10 -6,20 -4,31l111 0 0 54 -170 0 0 -46c0,-19 2,-35 8,-49 6,-13 13,-26 22,-38 9,-11 18,-22 28,-32 10,-11 19,-21 28,-33 9,-11 16,-24 22,-37 6,-14 8,-30 8,-48zm93 68l107 0 0 54 -107 0 0 -54zm338 215l-60 0 -10 -68 -72 0 -11 68 -54 0 60 -375 87 0 60 375zm-135 -119l57 0 -29 -190 -28 190z"/>
  <path class="fil1" d="M7777 15103l0 145c0,13 3,23 8,28 6,6 13,8 22,8 9,0 16,-2 22,-7 5,-5 8,-13 9,-25l0 -149 59 0 0 375 -59 0 0 -144c-5,2 -10,3 -15,4 -6,0 -11,0 -17,0 -29,0 -51,-8 -66,-24 -15,-16 -22,-40 -22,-70l0 -141 59 0zm222 158l80 0 0 54 -80 0 0 110 101 0 0 53 -160 0 0 -375 160 0 0 54 -101 0 0 104zm223 -158c30,0 52,8 66,24 15,16 22,39 22,69l0 49c0,30 -7,53 -22,69 -14,15 -36,23 -66,23l-28 0 0 141 -59 0 0 -375 87 0zm-28 54l0 127 28 0c9,0 16,-3 21,-8 5,-5 8,-14 8,-28l0 -56c0,-13 -3,-23 -8,-28 -5,-5 -12,-7 -21,-7l-28 0zm202 321l-59 0 0 -375 59 0 0 161 66 0 0 -161 60 0 0 375 -60 0 0 -160 -66 0 0 160zm169 -375l59 0 0 375 -59 0 0 -375zm191 0c31,0 53,7 67,22 13,14 20,36 20,64l0 14c0,19 -3,35 -9,48 -6,12 -15,21 -29,27 16,6 28,16 34,30 7,14 10,31 10,51l0 30c0,29 -7,51 -22,66 -15,16 -38,23 -67,23l-93 0 0 -375 89 0zm-30 206l0 116 34 0c10,0 17,-3 23,-8 5,-6 7,-15 7,-29l0 -33c0,-17 -3,-29 -9,-36 -5,-6 -15,-10 -29,-10l-26 0zm0 -152l0 99 23 0c11,0 20,-3 26,-9 6,-5 9,-16 9,-31l0 -21c0,-13 -2,-23 -7,-29 -5,-6 -12,-9 -23,-9l-28 0zm217 104l81 0 0 54 -81 0 0 110 102 0 0 53 -161 0 0 -375 161 0 0 54 -102 0 0 104zm196 164l66 0 0 -322 60 0 0 322 30 0 0 96 -60 0 0 -43 -155 0 0 -375 59 0 0 322zm265 0c9,0 16,-3 21,-8 5,-5 8,-14 8,-28l0 -56c0,-14 -3,-23 -8,-28 -5,-5 -12,-7 -21,-7l-28 0 0 127 28 0zm-87 53l0 -375 59 0 0 141 28 0c29,0 51,8 66,24 14,15 22,38 22,69l0 49c0,30 -8,53 -22,69 -15,15 -37,23 -66,23l-87 0zm278 -149l-18 34 0 115 -59 0 0 -375 59 0 0 164 78 -164 58 0 -82 167 82 208 -60 0 -58 -149zm335 149l-59 0 -10 -68 -73 0 -10 68 -54 0 60 -375 86 0 60 375zm-134 -119l57 0 -29 -189 -28 189zm298 33c0,14 2,23 8,29 6,5 13,8 22,8 9,0 17,-3 22,-8 6,-6 9,-15 9,-29l0 -203c0,-13 -3,-23 -9,-28 -5,-6 -13,-8 -22,-8 -9,0 -16,2 -22,8 -6,5 -8,15 -8,28l0 203zm-59 -199c0,-30 7,-53 23,-70 15,-16 37,-24 66,-24 29,0 51,8 67,24 15,17 23,40 23,70l0 195c0,31 -8,54 -23,70 -16,16 -38,25 -67,25 -29,0 -51,-9 -66,-25 -16,-16 -23,-39 -23,-70l0 -195zm275 51l28 0c30,0 52,8 66,24 15,15 22,38 22,69l0 49c0,30 -7,53 -22,69 -14,15 -36,23 -66,23l-87 0 0 -375 156 0 0 54 -97 0 0 87zm28 181c9,0 16,-3 21,-8 5,-5 8,-14 8,-28l0 -56c0,-14 -3,-23 -8,-28 -5,-5 -12,-7 -21,-7l-28 0 0 127 28 0zm288 -268l-68 0 0 228c0,19 -3,34 -7,47 -5,12 -11,21 -19,28 -8,7 -17,12 -27,15 -10,3 -21,4 -32,4 -5,0 -10,0 -15,0 -4,0 -8,0 -13,-1l0 -53c3,0 6,0 10,0 3,0 7,0 10,0 9,0 17,-2 24,-7 6,-4 10,-14 10,-29l0 -286 186 0 0 375 -59 0 0 -321z"/>
  <path class="fil1" d="M10921 15291c0,-11 2,-20 6,-29 4,-10 9,-17 15,-24 7,-7 15,-12 24,-16 9,-4 19,-6 29,-6 11,0 20,2 29,6 10,4 17,9 24,16 7,7 12,14 16,24 4,9 6,18 6,29 0,10 -2,20 -6,29 -4,9 -9,17 -16,24 -7,6 -14,11 -24,15 -9,4 -18,6 -29,6 -10,0 -20,-2 -29,-6 -9,-4 -17,-9 -24,-15 -6,-7 -11,-15 -15,-24 -4,-9 -6,-19 -6,-29zm455 47l0 50c0,31 -7,54 -22,70 -15,16 -37,25 -66,25 -29,0 -51,-9 -65,-25 -15,-16 -23,-39 -23,-70l0 -195c0,-30 8,-53 23,-70 14,-16 36,-24 65,-24 29,0 51,8 66,24 15,17 22,40 22,70l0 37 -56 0 0 -41c0,-13 -2,-23 -8,-28 -5,-6 -13,-8 -22,-8 -9,0 -17,2 -22,8 -6,5 -9,15 -9,28l0 203c0,14 3,23 9,28 5,6 13,8 22,8 9,0 17,-2 22,-8 6,-5 8,-14 8,-28l0 -54 56 0zm94 83l0 57 -56 0 0 -57 56 0zm169 -52l40 -266 82 0 0 375 -56 0 0 -269 -41 269 -55 0 -44 -265 0 265 -52 0 0 -375 82 0 44 266zm355 109l-60 0 -10 -68 -72 0 -10 68 -54 0 60 -375 86 0 60 375zm-135 -119l57 0 -28 -189 -29 189zm287 10l40 -266 82 0 0 375 -56 0 0 -269 -40 269 -56 0 -44 -265 0 265 -51 0 0 -375 82 0 43 266zm355 109l-59 0 -11 -68 -72 0 -10 68 -54 0 60 -375 86 0 60 375zm-134 -119l56 0 -28 -189 -28 189zm180 -256l59 0 0 375 -59 0 0 -375zm14 -73l0 55 -55 0 0 -55 55 0zm86 0l0 55 -55 0 0 -55 55 0zm110 73c31,0 53,7 67,22 14,14 20,36 20,64l0 14c0,19 -3,35 -9,48 -6,12 -15,21 -29,27 16,6 28,16 34,30 7,14 10,31 10,51l0 30c0,29 -7,51 -22,66 -15,16 -37,23 -67,23l-93 0 0 -375 89 0zm-30 206l0 116 34 0c10,0 17,-3 23,-8 5,-6 7,-15 7,-29l0 -33c0,-17 -3,-29 -8,-36 -6,-6 -16,-10 -30,-10l-26 0zm0 -152l0 99 23 0c11,0 20,-3 26,-9 6,-5 10,-16 10,-31l0 -21c0,-13 -3,-23 -8,-29 -5,-6 -12,-9 -22,-9l-29 0zm217 268l67 0 0 -322 60 0 0 322 30 0 0 96 -60 0 0 -43 -156 0 0 -375 59 0 0 322zm178 -322l59 0 0 375 -59 0 0 -375zm102 375l0 -57 57 0 0 51 -26 60 -24 0 16 -54 -23 0z"/>
  <polygon class="fil1" points="10785,15421 10785,15478 10729,15478 10729,15421 "/>
  <path class="fil1" d="M7844 15689c31,0 53,7 67,21 13,14 20,36 20,65l0 13c0,20 -3,36 -9,48 -6,13 -16,22 -29,28 16,6 28,16 34,30 7,13 10,30 10,50l0 31c0,29 -7,51 -22,66 -15,15 -38,23 -67,23l-93 0 0 -375 89 0zm-30 206l0 115 34 0c10,0 17,-3 22,-8 6,-5 8,-15 8,-29l0 -33c0,-17 -3,-29 -9,-35 -6,-7 -15,-10 -29,-10l-26 0zm0 -153l0 99 23 0c11,0 20,-2 26,-8 6,-6 9,-16 9,-31l0 -21c0,-14 -2,-24 -7,-30 -5,-6 -12,-9 -23,-9l-28 0zm174 268c3,0 7,1 10,1 4,0 7,0 10,0 5,0 9,-1 13,-2 5,-1 8,-3 11,-6 3,-3 6,-7 7,-12 2,-6 3,-12 3,-21l-86 -281 59 0 65 219 53 -219 59 0 -77 276c-7,26 -14,46 -21,59 -7,14 -14,24 -22,30 -8,6 -16,9 -25,10 -9,0 -20,1 -31,1 -5,0 -10,0 -14,0 -4,0 -9,-1 -14,-1l0 -54zm396 -268l-68 0 0 228c0,19 -2,35 -7,47 -5,12 -11,22 -19,29 -8,7 -17,12 -27,14 -10,3 -21,5 -32,5 -5,0 -10,0 -14,0 -5,0 -9,-1 -14,-1l0 -54c3,0 6,1 10,1 4,0 7,0 10,0 9,0 17,-3 24,-7 7,-5 10,-15 10,-29l0 -286 186 0 0 375 -59 0 0 -322zm159 265l0 57 -57 0 0 -57 57 0zm120 -93l-18 35 0 115 -59 0 0 -375 59 0 0 163 78 -163 58 0 -82 167 82 208 -61 0 -57 -150zm198 63c0,14 3,24 8,29 6,6 13,8 23,8 9,0 16,-2 22,-8 5,-5 8,-15 8,-29l0 -202c0,-14 -3,-23 -8,-29 -6,-5 -13,-8 -22,-8 -10,0 -17,3 -23,8 -5,6 -8,15 -8,29l0 202zm-59 -198c0,-31 8,-54 23,-70 16,-16 38,-25 67,-25 29,0 51,9 66,25 15,16 23,39 23,70l0 195c0,30 -8,53 -23,70 -15,16 -37,24 -66,24 -29,0 -51,-8 -67,-24 -15,-17 -23,-40 -23,-70l0 -195zm276 51l27 0c30,0 52,7 67,23 14,16 21,39 21,69l0 49c0,30 -7,53 -21,69 -15,16 -37,24 -67,24l-86 0 0 -375 156 0 0 53 -97 0 0 88zm27 180c10,0 17,-2 22,-7 5,-5 7,-15 7,-28l0 -56c0,-14 -2,-23 -7,-28 -5,-5 -12,-8 -22,-8l-27 0 0 127 27 0zm184 54l-61 0 0 -375 53 0 0 224 60 -224 74 0 0 375 -53 0 0 -272 -73 272zm334 -322l-68 0 0 228c0,19 -2,35 -7,47 -5,12 -11,22 -19,29 -8,7 -17,12 -27,14 -10,3 -21,5 -32,5 -5,0 -10,0 -14,0 -4,0 -9,-1 -14,-1l0 -54c3,0 6,1 10,1 4,0 7,0 10,0 10,0 17,-3 24,-7 7,-5 10,-15 10,-29l0 -286 186 0 0 375 -59 0 0 -322zm187 0c-10,0 -18,3 -22,9 -5,6 -8,16 -8,30l0 37c0,15 4,25 10,31 6,6 15,8 26,8l23 0 0 -115 -29 0zm-95 322c2,-7 4,-15 5,-21 1,-7 1,-16 1,-25l0 -58c0,-19 3,-36 8,-50 6,-14 16,-23 31,-30 -26,-12 -38,-37 -38,-76l0 -29c0,-29 6,-51 20,-65 14,-14 36,-21 67,-21l89 0 0 375 -59 0 0 -153 -21 0c-13,0 -23,4 -29,11 -6,7 -9,19 -9,37l0 59c0,7 0,13 0,18 -1,5 -1,9 -1,13 -1,3 -2,6 -2,8 -1,2 -2,4 -2,7l-60 0zm285 0l-59 0 0 -375 59 0 0 160 67 0 0 -160 60 0 0 375 -60 0 0 -161 -67 0 0 161zm340 -140l0 50c0,30 -8,53 -23,70 -14,16 -36,24 -65,24 -29,0 -51,-8 -66,-24 -15,-17 -22,-40 -22,-70l0 -195c0,-31 7,-54 22,-70 15,-16 37,-25 66,-25 29,0 51,9 65,25 15,16 23,39 23,70l0 36 -56 0 0 -40c0,-14 -3,-23 -8,-29 -6,-5 -13,-8 -23,-8 -9,0 -16,3 -22,8 -5,6 -8,15 -8,29l0 202c0,14 3,23 8,29 6,5 13,8 22,8 10,0 17,-3 23,-8 5,-6 8,-15 8,-29l0 -53 56 0zm124 86c9,0 16,-2 21,-7 5,-5 8,-15 8,-28l0 -56c0,-14 -3,-23 -8,-28 -5,-5 -12,-8 -21,-8l-28 0 0 127 28 0zm-87 54l0 -375 59 0 0 141 28 0c30,0 52,7 66,23 15,16 22,39 22,69l0 49c0,30 -7,53 -22,69 -14,16 -36,24 -66,24l-87 0zm279 -150l-18 35 0 115 -59 0 0 -375 59 0 0 163 78 -163 58 0 -82 167 82 208 -61 0 -57 -150zm198 63c0,14 3,24 8,29 6,6 13,8 23,8 9,0 16,-2 22,-8 5,-5 8,-15 8,-29l0 -202c0,-14 -3,-23 -8,-29 -6,-5 -13,-8 -22,-8 -10,0 -17,3 -23,8 -5,6 -8,15 -8,29l0 202zm-59 -198c0,-31 8,-54 23,-70 15,-16 38,-25 67,-25 28,0 51,9 66,25 15,16 23,39 23,70l0 195c0,30 -8,53 -23,70 -15,16 -38,24 -66,24 -29,0 -52,-8 -67,-24 -15,-17 -23,-40 -23,-70l0 -195zm236 -90l59 0 0 375 -59 0 0 -375zm14 -73l0 54 -55 0 0 -54 55 0zm85 0l0 54 -54 0 0 -54 54 0zm222 165c0,-17 -3,-28 -9,-34 -5,-6 -13,-9 -22,-9 -9,0 -17,3 -22,8 -6,6 -8,15 -8,29l0 40 -56 0 0 -36c0,-31 7,-54 22,-70 15,-16 37,-25 66,-25 29,0 51,9 65,25 15,16 23,39 23,70 0,20 -4,38 -10,55 -6,16 -14,31 -23,45 -9,13 -19,26 -30,37 -11,11 -20,22 -29,32 -9,10 -15,21 -20,31 -5,10 -7,20 -5,31l111 0 0 54 -170 0 0 -46c0,-19 3,-35 8,-49 6,-14 13,-26 22,-38 9,-12 18,-22 28,-33 10,-10 20,-21 28,-32 9,-11 16,-24 22,-37 6,-14 9,-30 9,-48zm92 68l107 0 0 54 -107 0 0 -54zm338 215l-60 0 -10 -68 -72 0 -10 68 -54 0 60 -375 86 0 60 375zm-135 -119l57 0 -28 -190 -29 190zm162 119l0 -57 56 0 0 51 -25 59 -24 0 15 -53 -22 0zm294 -283c0,-17 -3,-28 -9,-34 -5,-6 -13,-9 -22,-9 -9,0 -17,3 -22,8 -6,6 -8,15 -8,29l0 40 -56 0 0 -36c0,-31 7,-54 22,-70 15,-16 37,-25 66,-25 29,0 51,9 65,25 15,16 23,39 23,70l0 9c0,40 -14,66 -42,77 15,7 26,17 32,30 6,14 10,30 10,49l0 30c0,30 -8,53 -23,70 -14,16 -36,24 -65,24 -29,0 -51,-8 -66,-24 -15,-17 -22,-40 -22,-70l0 -47 56 0 0 50c0,14 2,24 8,29 5,6 13,8 22,8 9,0 17,-2 22,-8 6,-6 9,-17 9,-34l0 -29c0,-18 -3,-30 -9,-37 -6,-7 -16,-11 -30,-11l-9 0 0 -54 12 0c11,0 20,-2 26,-8 7,-6 10,-16 10,-31l0 -21zm155 283l-59 0 0 -375 59 0 0 160 67 0 0 -160 60 0 0 375 -60 0 0 -161 -67 0 0 161zm281 -283c0,-17 -2,-28 -8,-34 -6,-6 -13,-9 -22,-9 -10,0 -17,3 -22,8 -6,6 -9,15 -9,29l0 40 -56 0 0 -36c0,-31 8,-54 23,-70 15,-16 36,-25 65,-25 29,0 51,9 66,25 15,16 22,39 22,70l0 9c0,40 -14,66 -41,77 15,7 26,17 32,30 6,14 9,30 9,49l0 30c0,30 -7,53 -22,70 -15,16 -37,24 -66,24 -29,0 -50,-8 -65,-24 -15,-17 -23,-40 -23,-70l0 -47 56 0 0 50c0,14 3,24 9,29 5,6 12,8 22,8 9,0 16,-2 22,-8 6,-6 8,-17 8,-34l0 -29c0,-18 -3,-30 -9,-37 -6,-7 -16,-11 -29,-11l-9 0 0 -54 12 0c11,0 20,-2 26,-8 6,-6 9,-16 9,-31l0 -21zm233 11l0 272 -53 0 0 -375 74 0 60 224 0 -224 130 0 0 44 -77 0 0 331 -61 0 -73 -272zm284 228l0 44 -129 0 0 -44 129 0zm-129 -153c0,-26 6,-47 17,-61 11,-15 27,-22 48,-22 21,0 37,7 48,22 11,14 17,35 17,61l0 26c0,27 -6,47 -17,61 -11,15 -27,22 -48,22 -21,0 -37,-7 -48,-22 -11,-14 -17,-34 -17,-61l0 -26zm43 29c0,12 2,20 6,25 3,5 9,8 16,8 7,0 13,-3 16,-8 4,-5 6,-13 6,-25l0 -32c0,-12 -2,-20 -6,-25 -3,-5 -9,-7 -16,-7 -7,0 -13,2 -16,7 -4,5 -6,13 -6,25l0 32zm235 -115c0,-17 -3,-28 -8,-34 -6,-6 -13,-9 -22,-9 -10,0 -17,3 -23,8 -5,6 -8,15 -8,29l0 40 -56 0 0 -36c0,-31 8,-54 23,-70 14,-16 36,-25 65,-25 29,0 51,9 66,25 15,16 22,39 22,70 0,20 -3,38 -9,55 -7,16 -14,31 -24,45 -9,13 -19,26 -30,37 -10,11 -20,22 -29,32 -8,10 -15,21 -20,31 -5,10 -6,20 -5,31l112 0 0 54 -171 0 0 -46c0,-19 3,-35 9,-49 6,-14 13,-26 22,-38 8,-12 18,-22 28,-33 10,-10 19,-21 28,-32 9,-11 16,-24 22,-37 5,-14 8,-30 8,-48z"/>
 </g>
</svg>
