<?xml version="1.0" encoding="UTF-8"?>
<!DOCTYPE svg PUBLIC "-//W3C//DTD SVG 1.1//EN" "http://www.w3.org/Graphics/SVG/1.1/DTD/svg11.dtd">
<!-- Creator: CorelDRAW X7 -->
<svg xmlns="http://www.w3.org/2000/svg" xml:space="preserve" width="37.173mm" height="14.7888mm" version="1.1" style="shape-rendering:geometricPrecision; text-rendering:geometricPrecision; image-rendering:optimizeQuality; fill-rule:evenodd; clip-rule:evenodd"
viewBox="0 0 1834 730"
 xmlns:xlink="http://www.w3.org/1999/xlink">
 <defs>
  <style type="text/css">
   <![CDATA[
    .str0 {stroke:#E31E24;stroke-width:12.335}
    .fil0 {fill:#E31E24;fill-rule:nonzero}
   ]]>
  </style>
 </defs>
 <g id="Слой_x0020_1">
  <metadata id="CorelCorpID_0Corel-Layer"/>
  <path class="fil0 str0" d="M52 235c0,10 2,18 7,22 4,4 10,6 17,6 7,0 13,-2 17,-6 5,-4 7,-12 7,-22l0 -158c0,-11 -2,-18 -7,-23 -4,-4 -10,-6 -17,-6 -7,0 -13,2 -17,6 -5,5 -7,12 -7,23l0 158zm-46 -155c0,-24 6,-42 18,-55 12,-12 29,-19 52,-19 22,0 40,7 52,19 12,13 18,31 18,55l0 152c0,23 -6,42 -18,54 -12,13 -30,19 -52,19 -23,0 -40,-6 -52,-19 -12,-12 -18,-31 -18,-54l0 -152zm304 149c0,25 -5,44 -17,57 -11,13 -29,19 -53,19 -22,0 -40,-6 -51,-19 -12,-12 -17,-31 -17,-54l0 -8 43 0 0 11c0,10 2,18 7,22 4,4 10,6 17,6 8,0 14,-2 19,-7 4,-5 6,-15 6,-28l0 -54c-8,17 -22,26 -42,26 -17,0 -30,-6 -38,-17 -9,-12 -13,-28 -13,-50l0 -53c0,-24 6,-42 18,-55 12,-12 29,-19 52,-19 22,0 39,7 51,19 12,13 18,31 18,55l0 149zm-69 -71c7,0 13,-2 17,-6 4,-5 6,-12 6,-23l0 -52c0,-11 -2,-18 -6,-22 -4,-5 -10,-7 -17,-7 -8,0 -13,2 -18,7 -4,4 -6,11 -6,22l0 52c0,11 2,18 6,23 5,4 10,6 18,6zm141 50l0 27c0,10 2,18 7,22 4,4 10,6 17,6 7,0 13,-2 17,-6 5,-4 7,-12 7,-22l0 -65c0,-10 -2,-18 -7,-22 -4,-4 -10,-6 -17,-6 -7,0 -13,2 -17,6 -5,4 -7,12 -7,22l0 9 -43 0 8 -169 121 0 0 41 -80 0 -3 70c8,-14 22,-21 40,-21 17,0 29,5 38,17 8,11 13,28 13,50l0 65c0,23 -6,42 -18,54 -11,13 -28,19 -51,19 -22,0 -39,-6 -51,-19 -12,-12 -17,-31 -17,-54l0 -24 43 0zm217 -162c9,0 17,-1 22,-3 6,-2 11,-4 14,-8 4,-3 7,-7 9,-11 2,-5 4,-9 6,-14l31 0 0 292 -46 0 0 -223 -36 0 0 -33zm228 35c0,-13 -2,-22 -6,-26 -4,-5 -10,-7 -17,-7 -8,0 -13,2 -18,6 -4,5 -6,12 -6,23l0 31 -44 0 0 -28c0,-24 6,-42 18,-55 11,-12 28,-19 51,-19 22,0 40,7 51,19 12,13 17,31 17,55 0,16 -2,30 -7,43 -5,13 -11,24 -18,35 -7,10 -15,20 -23,29 -9,9 -16,17 -23,25 -7,8 -12,16 -16,24 -4,7 -5,16 -4,24l87 0 0 42 -133 0 0 -36c0,-14 3,-27 7,-38 5,-10 10,-20 17,-29 7,-10 14,-18 22,-26 8,-8 15,-16 22,-25 7,-9 12,-19 17,-29 4,-11 6,-23 6,-38zm116 127l0 27c0,10 2,18 7,22 4,4 10,6 17,6 7,0 13,-2 17,-6 5,-4 7,-12 7,-22l0 -65c0,-10 -2,-18 -7,-22 -4,-4 -10,-6 -17,-6 -7,0 -13,2 -17,6 -5,4 -7,12 -7,22l0 9 -43 0 8 -169 121 0 0 41 -80 0 -3 70c8,-14 22,-21 40,-21 17,0 30,5 38,17 8,11 13,28 13,50l0 65c0,23 -6,42 -18,54 -11,13 -28,19 -51,19 -22,0 -39,-6 -51,-19 -11,-12 -17,-31 -17,-54l0 -24 43 0zm324 21c0,25 -6,44 -17,57 -12,13 -29,19 -53,19 -23,0 -40,-6 -51,-19 -12,-12 -18,-31 -18,-54l0 -8 44 0 0 11c0,10 2,18 6,22 4,4 10,6 17,6 9,0 15,-2 19,-7 5,-5 7,-15 7,-28l0 -54c-8,17 -22,26 -43,26 -17,0 -29,-6 -38,-17 -8,-12 -13,-28 -13,-50l0 -53c0,-24 6,-42 18,-55 12,-12 30,-19 52,-19 23,0 40,7 52,19 12,13 18,31 18,55l0 149zm-70 -71c7,0 13,-2 17,-6 5,-5 7,-12 7,-23l0 -52c0,-11 -2,-18 -7,-22 -4,-5 -10,-7 -17,-7 -7,0 -13,2 -17,7 -5,4 -7,11 -7,22l0 52c0,11 2,18 7,23 4,4 10,6 17,6zm235 71c0,25 -5,44 -17,57 -11,13 -29,19 -53,19 -22,0 -39,-6 -51,-19 -12,-12 -17,-31 -17,-54l0 -8 43 0 0 11c0,10 2,18 7,22 4,4 10,6 17,6 8,0 14,-2 19,-7 4,-5 6,-15 6,-28l0 -54c-8,17 -22,26 -42,26 -17,0 -30,-6 -38,-17 -9,-12 -13,-28 -13,-50l0 -53c0,-24 6,-42 18,-55 12,-12 29,-19 52,-19 22,0 39,7 51,19 12,13 18,31 18,55l0 149zm-69 -71c7,0 13,-2 17,-6 4,-5 6,-12 6,-23l0 -52c0,-11 -2,-18 -6,-22 -4,-5 -10,-7 -17,-7 -8,0 -13,2 -18,7 -4,4 -6,11 -6,22l0 52c0,11 2,18 6,23 5,4 10,6 18,6zm300 71c0,25 -6,44 -18,57 -11,13 -29,19 -53,19 -22,0 -39,-6 -51,-19 -11,-12 -17,-31 -17,-54l0 -8 43 0 0 11c0,10 2,18 7,22 4,4 10,6 17,6 8,0 14,-2 19,-7 4,-5 7,-15 7,-28l0 -54c-9,17 -23,26 -43,26 -17,0 -30,-6 -38,-17 -9,-12 -13,-28 -13,-50l0 -53c0,-24 6,-42 18,-55 12,-12 29,-19 52,-19 22,0 40,7 52,19 12,13 18,31 18,55l0 149zm-70 -71c7,0 13,-2 17,-6 4,-5 7,-12 7,-23l0 -52c0,-11 -3,-18 -7,-22 -4,-5 -10,-7 -17,-7 -7,0 -13,2 -18,7 -4,4 -6,11 -6,22l0 52c0,11 2,18 6,23 5,4 11,6 18,6zm128 -112c9,0 17,-1 22,-3 6,-2 11,-4 14,-8 4,-3 7,-7 9,-11 2,-5 4,-9 6,-14l31 0 0 292 -46 0 0 -223 -36 0 0 -33zm-1669 607c0,10 2,18 7,22 4,5 10,7 17,7 7,0 13,-2 17,-7 5,-4 7,-12 7,-22l0 -158c0,-11 -2,-18 -7,-22 -4,-5 -10,-7 -17,-7 -7,0 -13,2 -17,7 -5,4 -7,11 -7,22l0 158zm-46 -155c0,-24 6,-42 18,-55 12,-12 29,-19 52,-19 22,0 40,7 52,19 12,13 18,31 18,55l0 152c0,24 -6,42 -18,55 -12,12 -30,19 -52,19 -23,0 -40,-7 -52,-19 -12,-13 -18,-31 -18,-55l0 -152zm304 149c0,25 -5,44 -17,57 -11,13 -29,20 -53,20 -22,0 -40,-7 -51,-19 -12,-13 -17,-31 -17,-55l0 -8 43 0 0 11c0,10 2,18 7,22 4,5 10,7 17,7 8,0 14,-3 19,-8 4,-5 6,-14 6,-28l0 -54c-8,18 -22,26 -42,26 -17,0 -30,-5 -38,-17 -9,-11 -13,-28 -13,-50l0 -53c0,-24 6,-42 18,-55 12,-12 29,-19 52,-19 22,0 39,7 51,19 12,13 18,31 18,55l0 149zm-69 -71c7,0 13,-2 17,-6 4,-4 6,-12 6,-22l0 -53c0,-11 -2,-18 -6,-22 -4,-4 -10,-6 -17,-6 -8,0 -13,2 -18,6 -4,4 -6,11 -6,22l0 53c0,10 2,18 6,22 5,4 10,6 18,6zm238 74c0,24 -6,42 -19,55 -12,12 -30,19 -53,19 -24,0 -41,-7 -54,-19 -12,-13 -18,-31 -18,-55l0 -23c0,-14 2,-27 7,-37 4,-10 11,-18 21,-24 -19,-10 -28,-30 -28,-59l0 -9c0,-24 6,-42 18,-55 13,-12 30,-19 54,-19 23,0 41,7 53,19 13,13 19,31 19,55l0 9c0,29 -10,48 -29,59 10,6 17,14 22,24 4,10 7,23 7,37l0 23zm-98 -1c0,13 2,22 7,26 5,5 12,7 19,7 7,0 13,-2 18,-7 5,-4 7,-13 8,-26l0 -27c0,-12 -3,-21 -7,-26 -5,-5 -11,-7 -19,-7 -8,0 -15,2 -19,7 -5,5 -7,14 -7,26l0 27zm0 -133c0,12 2,20 7,24 5,5 11,7 19,7 7,0 13,-2 18,-7 5,-4 8,-12 8,-24l0 -16c0,-13 -3,-22 -8,-27 -5,-5 -11,-7 -18,-7 -7,0 -14,2 -19,7 -5,5 -7,14 -7,27l0 16zm218 -51c9,0 17,-1 22,-3 6,-2 11,-5 14,-8 4,-4 7,-8 9,-12 2,-5 4,-9 6,-14l31 0 0 292 -46 0 0 -223 -36 0 0 -32zm180 188c0,10 2,18 6,22 4,5 10,7 17,7 8,0 13,-2 18,-7 4,-4 6,-12 6,-22l0 -158c0,-11 -2,-18 -6,-22 -5,-5 -10,-7 -18,-7 -7,0 -13,2 -17,7 -4,4 -6,11 -6,22l0 158zm-46 -155c0,-24 6,-42 18,-55 12,-12 29,-19 51,-19 23,0 40,7 52,19 12,13 18,31 18,55l0 152c0,24 -6,42 -18,55 -12,12 -29,19 -52,19 -22,0 -39,-7 -51,-19 -12,-13 -18,-31 -18,-55l0 -152zm304 -70l0 40 -68 252 -46 0 67 -250 -91 0 0 -42 138 0zm230 0l0 40 -68 252 -46 0 68 -250 -92 0 0 -42 138 0zm73 225c0,10 2,18 6,22 4,5 10,7 17,7 8,0 13,-2 18,-7 4,-4 6,-12 6,-22l0 -158c0,-11 -2,-18 -6,-22 -5,-5 -10,-7 -18,-7 -7,0 -13,2 -17,7 -4,4 -6,11 -6,22l0 158zm-46 -155c0,-24 6,-42 18,-55 12,-12 29,-19 51,-19 23,0 40,7 52,19 12,13 18,31 18,55l0 152c0,24 -6,42 -18,55 -12,12 -29,19 -52,19 -22,0 -39,-7 -51,-19 -12,-13 -18,-31 -18,-55l0 -152zm369 -70l0 40 -68 252 -46 0 67 -250 -91 0 0 -42 138 0zm165 0l0 40 -68 252 -46 0 68 -250 -92 0 0 -42 138 0z"/>
 </g>
</svg>
