<?xml version="1.0" encoding="UTF-8"?>
<!DOCTYPE svg PUBLIC "-//W3C//DTD SVG 1.1//EN" "http://www.w3.org/Graphics/SVG/1.1/DTD/svg11.dtd">
<!-- Creator: CorelDRAW X7 -->
<svg xmlns="http://www.w3.org/2000/svg" xml:space="preserve" width="10.0414mm" height="82.2847mm" version="1.1" style="shape-rendering:geometricPrecision; text-rendering:geometricPrecision; image-rendering:optimizeQuality; fill-rule:evenodd; clip-rule:evenodd"
viewBox="0 0 264 2163"
 xmlns:xlink="http://www.w3.org/1999/xlink">
 <defs>
  <style type="text/css">
   <![CDATA[
    .fil0 {fill:#2B2A29;fill-rule:nonzero}
   ]]>
  </style>
 </defs>
 <g id="Слой_x0020_1">
  <metadata id="CorelCorpID_0Corel-Layer"/>
  <path class="fil0" d="M86 156l-25 0 -4 -28 -30 0 -5 28 -22 0 25 -156 36 0 25 156zm-56 -50l23 0 -11 -78 -12 78zm82 -86c5,0 9,-1 12,-2 3,-1 5,-2 7,-4 2,-2 4,-4 5,-6 1,-3 2,-5 3,-8l16 0 0 156 -24 0 0 -119 -19 0 0 -17zm152 136l-25 0 -4 -28 -30 0 -4 28 -23 0 25 -156 36 0 25 156zm-56 -50l24 0 -12 -78 -12 78zm-164 117c12,0 22,3 27,9 6,6 9,15 9,27l0 5c0,8 -1,15 -4,20 -3,5 -7,9 -12,12 7,2 11,6 14,12 3,6 4,13 4,21l0 13c0,12 -3,21 -9,27 -6,7 -16,10 -28,10l-38 0 0 -156 37 0zm-13 86l0 47 14 0c4,0 7,-1 10,-3 2,-2 3,-6 3,-12l0 -14c0,-7 -1,-12 -4,-14 -2,-3 -6,-4 -12,-4l-11 0zm0 -64l0 41 10 0c4,0 8,-1 10,-3 3,-3 4,-7 4,-13l0 -9c0,-5 -1,-10 -3,-12 -2,-3 -5,-4 -9,-4l-12 0zm81 -3c5,0 9,0 12,-1 3,-1 5,-3 7,-4 2,-2 3,-4 5,-7 1,-2 2,-4 3,-7l16 0 0 156 -24 0 0 -119 -19 0 0 -18zm110 -19c13,0 22,3 28,9 5,6 8,15 8,27l0 5c0,8 -1,15 -4,20 -2,5 -6,9 -12,12 7,2 12,6 14,12 3,6 5,13 5,21l0 13c0,12 -4,21 -10,27 -6,7 -15,10 -28,10l-38 0 0 -156 37 0zm-13 86l0 47 14 0c5,0 8,-1 10,-3 2,-2 3,-6 3,-12l0 -14c0,-7 -1,-12 -4,-14 -2,-3 -6,-4 -12,-4l-11 0zm0 -64l0 41 10 0c5,0 8,-1 11,-3 2,-3 4,-7 4,-13l0 -9c0,-5 -1,-10 -3,-12 -2,-3 -6,-4 -10,-4l-12 0zm-76 201c13,0 22,3 27,9 6,6 9,15 9,27l0 5c0,8 -1,15 -4,20 -2,5 -6,9 -12,12 7,2 12,6 14,12 3,6 5,13 5,21l0 13c0,12 -4,21 -10,27 -6,6 -15,10 -28,10l-38 0 0 -156 37 0zm-13 85l0 48 14 0c4,0 8,-1 10,-3 2,-2 3,-6 3,-12l0 -14c0,-7 -1,-12 -4,-15 -2,-2 -6,-4 -12,-4l-11 0zm0 -63l0 41 10 0c4,0 8,-1 11,-3 2,-3 4,-7 4,-13l0 -9c0,-6 -1,-10 -3,-12 -2,-3 -6,-4 -10,-4l-12 0zm-31 201c12,0 22,3 27,9 6,5 9,14 9,26l0 6c0,8 -1,15 -4,20 -2,5 -6,9 -12,11 7,3 12,7 14,13 3,5 4,12 4,21l0 12c0,12 -3,22 -9,28 -6,6 -15,9 -28,9l-38 0 0 -155 37 0zm-13 85l0 48 14 0c4,0 8,-1 10,-3 2,-2 3,-6 3,-12l0 -14c0,-7 -1,-12 -4,-15 -2,-2 -6,-4 -12,-4l-11 0zm0 -63l0 41 10 0c4,0 8,-1 11,-4 2,-2 4,-6 4,-12l0 -9c0,-6 -1,-10 -3,-12 -3,-3 -6,-4 -10,-4l-12 0zm81 -3c5,0 9,0 12,-1 3,-1 5,-3 7,-5 2,-1 4,-3 5,-6 1,-2 2,-5 3,-7l16 0 0 155 -24 0 0 -118 -19 0 0 -18zm-76 301l0 21c0,13 -3,22 -9,29 -6,7 -15,10 -27,10 -12,0 -21,-3 -28,-10 -6,-7 -9,-16 -9,-29l0 -81c0,-13 3,-22 9,-29 7,-7 16,-10 28,-10 12,0 21,3 27,10 6,7 9,16 9,29l0 15 -23 0 0 -17c0,-5 -1,-9 -3,-12 -3,-2 -6,-3 -10,-3 -3,0 -7,1 -9,3 -2,3 -3,7 -3,12l0 84c0,6 1,10 3,12 2,2 6,4 9,4 4,0 7,-2 10,-4 2,-2 3,-6 3,-12l0 -22 23 0zm31 -78c5,0 9,0 12,-1 3,-2 5,-3 7,-5 2,-2 4,-4 5,-6 1,-2 2,-5 3,-8l16 0 0 156 -24 0 0 -119 -19 0 0 -17zm144 78l0 21c0,13 -3,22 -9,29 -7,7 -16,10 -28,10 -12,0 -21,-3 -27,-10 -6,-7 -9,-16 -9,-29l0 -81c0,-13 3,-22 9,-29 6,-7 15,-10 27,-10 12,0 21,3 28,10 6,7 9,16 9,29l0 15 -23 0 0 -17c0,-5 -2,-9 -4,-12 -2,-2 -5,-3 -9,-3 -4,0 -7,1 -9,3 -3,3 -4,7 -4,12l0 84c0,6 1,10 4,12 2,2 5,4 9,4 4,0 7,-2 9,-4 2,-2 4,-6 4,-12l0 -22 23 0zm-250 125l39 0c12,0 21,4 27,10 6,7 9,16 9,29l0 79c0,12 -3,22 -9,28 -6,7 -15,10 -27,10l-39 0 0 -156zm24 23l0 111 14 0c4,0 7,-1 9,-3 3,-3 4,-7 4,-12l0 -81c0,-6 -1,-10 -4,-12 -2,-2 -5,-3 -9,-3l-14 0zm82 -3c5,0 9,-1 12,-2 3,-1 5,-2 7,-4 2,-2 4,-4 5,-6 1,-2 2,-5 3,-8l16 0 0 156 -24 0 0 -119 -19 0 0 -17zm73 -20l39 0c12,0 21,4 27,10 6,7 9,16 9,29l0 79c0,12 -3,22 -9,28 -6,7 -15,10 -27,10l-39 0 0 -156zm24 23l0 111 14 0c4,0 7,-1 9,-3 3,-3 4,-7 4,-12l0 -81c0,-6 -1,-10 -4,-12 -2,-2 -5,-3 -9,-3l-14 0zm-154 200l38 0c13,0 22,3 28,10 6,7 9,16 9,29l0 79c0,12 -3,22 -9,28 -6,7 -15,10 -28,10l-38 0 0 -156zm24 22l0 112 14 0c4,0 7,-1 9,-4 2,-2 3,-6 3,-11l0 -81c0,-6 -1,-10 -3,-12 -2,-2 -5,-4 -9,-4l-14 0zm91 44l33 0 0 22 -33 0 0 46 42 0 0 22 -67 0 0 -156 67 0 0 22 -42 0 0 44zm-78 157c12,0 22,3 27,9 6,6 9,15 9,27l0 5c0,8 -1,15 -4,20 -2,5 -6,9 -12,12 7,2 12,7 14,12 3,6 4,13 4,21l0 13c0,12 -3,21 -9,27 -6,7 -15,10 -28,10l-38 0 0 -156 37 0zm-13 86l0 48 14 0c4,0 8,-1 10,-4 2,-2 3,-6 3,-12l0 -13c0,-8 -1,-13 -4,-15 -2,-3 -6,-4 -12,-4l-11 0zm0 -64l0 42 10 0c4,0 8,-2 11,-4 2,-2 4,-7 4,-13l0 -9c0,-5 -1,-9 -3,-12 -2,-2 -6,-4 -10,-4l-12 0zm91 44l33 0 0 22 -33 0 0 46 42 0 0 22 -67 0 0 -156 67 0 0 22 -42 0 0 44zm-86 255l0 20c0,13 -3,23 -9,29 -6,7 -16,11 -28,11 -12,0 -21,-4 -27,-11 -6,-6 -9,-16 -9,-29l0 -81c0,-12 3,-22 9,-29 6,-6 15,-10 27,-10 12,0 22,4 28,10 6,7 9,17 9,29l0 15 -23 0 0 -16c0,-6 -1,-10 -4,-12 -2,-2 -5,-4 -9,-4 -4,0 -7,2 -9,4 -2,2 -4,6 -4,12l0 84c0,6 2,10 4,12 2,2 5,3 9,3 4,0 7,-1 9,-3 3,-2 4,-6 4,-12l0 -22 23 0zm30 -78c5,0 9,-1 12,-2 3,-1 5,-2 7,-4 2,-2 4,-4 5,-6 1,-3 2,-5 3,-8l16 0 0 156 -24 0 0 -119 -19 0 0 -17zm97 46l34 0 0 22 -34 0 0 46 43 0 0 22 -67 0 0 -156 67 0 0 22 -43 0 0 44zm-83 255l0 20c0,13 -3,23 -9,29 -6,7 -15,10 -28,10 -12,0 -21,-3 -27,-10 -6,-6 -9,-16 -9,-29l0 -81c0,-12 3,-22 9,-29 6,-7 15,-10 27,-10 13,0 22,3 28,10 6,7 9,17 9,29l0 15 -23 0 0 -16c0,-6 -1,-10 -4,-12 -2,-3 -5,-4 -9,-4 -4,0 -7,1 -9,4 -2,2 -4,6 -4,12l0 84c0,5 2,9 4,12 2,2 5,3 9,3 4,0 7,-1 9,-3 3,-3 4,-7 4,-12l0 -22 23 0zm39 -33l34 0 0 23 -34 0 0 45 43 0 0 23 -67 0 0 -156 67 0 0 22 -43 0 0 43z"/>
 </g>
</svg>
