<?xml version="1.0" encoding="UTF-8"?>
<!DOCTYPE svg PUBLIC "-//W3C//DTD SVG 1.1//EN" "http://www.w3.org/Graphics/SVG/1.1/DTD/svg11.dtd">
<!-- Creator: CorelDRAW X7 -->
<svg xmlns="http://www.w3.org/2000/svg" xml:space="preserve" width="43.8214mm" height="70.5735mm" version="1.1" style="shape-rendering:geometricPrecision; text-rendering:geometricPrecision; image-rendering:optimizeQuality; fill-rule:evenodd; clip-rule:evenodd"
viewBox="0 0 998 1607"
 xmlns:xlink="http://www.w3.org/1999/xlink">
 <defs>
  <style type="text/css">
   <![CDATA[
    .fil0 {fill:#2B2A29;fill-rule:nonzero}
   ]]>
  </style>
 </defs>
 <g id="Слой_x0020_1">
  <metadata id="CorelCorpID_0Corel-Layer"/>
  <g id="_776513520">
   <path class="fil0" d="M206 92l14 -92 28 0 0 130 -19 0 0 -93 -14 93 -19 0 -16 -92 0 92 -17 0 0 -130 28 0 15 92zm77 18l0 20 -20 0 0 -20 20 0zm30 -110l0 50c0,5 1,8 3,10 2,2 4,3 8,3 3,0 5,-1 7,-3 2,-2 3,-4 3,-9l0 -51 21 0 0 130 -21 0 0 -50c-2,0 -3,1 -5,1 -2,0 -4,0 -6,0 -10,0 -17,-3 -23,-8 -5,-6 -7,-14 -7,-24l0 -49 20 0zm77 55l28 0 0 18 -28 0 0 38 35 0 0 19 -56 0 0 -130 56 0 0 19 -35 0 0 36zm77 -55c10,0 18,3 23,8 5,6 7,14 7,24l0 17c0,10 -2,18 -7,24 -5,5 -13,8 -23,8l-10 0 0 49 -20 0 0 -130 30 0zm-10 19l0 43 10 0c3,0 6,0 7,-2 2,-2 3,-5 3,-10l0 -19c0,-5 -1,-8 -3,-10 -1,-2 -4,-2 -7,-2l-10 0zm70 111l-20 0 0 -130 20 0 0 56 23 0 0 -56 21 0 0 130 -21 0 0 -56 -23 0 0 56zm59 -130l20 0 0 130 -20 0 0 -130zm66 0c10,0 18,2 23,7 4,5 7,13 7,23l0 4c0,7 -1,13 -3,17 -3,4 -6,7 -10,10 5,2 9,5 11,10 3,5 4,10 4,17l0 11c0,10 -3,17 -8,23 -5,5 -13,8 -23,8l-32 0 0 -130 31 0zm-11 71l0 40 12 0c3,0 6,-1 8,-3 2,-2 2,-5 2,-10l0 -11c0,-6 -1,-10 -3,-12 -2,-3 -5,-4 -10,-4l-9 0zm0 -52l0 34 8 0c4,0 7,-1 9,-3 2,-2 3,-6 3,-11l0 -7c0,-5 0,-8 -2,-10 -2,-2 -4,-3 -8,-3l-10 0zm75 92l23 0 0 -111 21 0 0 111 10 0 0 33 -20 0 0 -14 -54 0 0 -130 20 0 0 111zm62 -111l20 0 0 130 -20 0 0 -130zm35 130l0 -20 20 0 0 18 -9 20 -9 0 6 -18 -8 0zm-813 117c0,-3 1,-6 2,-8 1,-3 2,-5 4,-7 2,-2 4,-3 7,-4 2,-1 5,-2 8,-2 2,0 5,1 8,2 2,1 4,2 6,4 2,2 3,4 5,7 1,2 1,5 1,8 0,3 0,5 -1,8 -2,2 -3,4 -5,6 -2,2 -4,4 -6,5 -3,1 -6,1 -8,1 -3,0 -6,0 -8,-1 -3,-1 -5,-3 -7,-5 -2,-2 -3,-4 -4,-6 -1,-3 -2,-5 -2,-8zm103 -52c9,0 15,2 19,6 4,4 6,10 6,18l0 3c0,6 -1,10 -3,14 -2,3 -4,6 -8,7 4,2 8,5 9,8 2,4 3,9 3,14l0 9c0,8 -2,14 -6,18 -4,4 -10,7 -19,7l-25 0 0 -104 24 0zm-8 57l0 32 9 0c3,0 5,-1 7,-3 1,-1 2,-4 2,-8l0 -9c0,-4 -1,-8 -3,-9 -1,-2 -4,-3 -8,-3l-7 0zm0 -42l0 27 6 0c4,0 6,-1 8,-2 1,-2 2,-5 2,-9l0 -6c0,-3 0,-6 -2,-8 -1,-2 -3,-2 -6,-2l-8 0zm48 74c1,0 2,0 3,0 1,0 2,0 3,0 1,0 2,0 3,-1 2,0 3,0 3,-1 1,-1 2,-2 2,-4 1,-1 1,-3 1,-5l-24 -78 17 0 18 61 14 -61 17 0 -22 76c-2,7 -3,13 -5,17 -2,3 -4,6 -7,8 -2,1 -4,2 -7,3 -2,0 -5,0 -8,0 -1,0 -3,0 -4,0 -1,0 -2,0 -4,0l0 -15zm110 -74l-19 0 0 63c0,5 -1,9 -2,13 -1,3 -3,6 -5,8 -2,1 -5,3 -8,4 -3,0 -5,1 -9,1 -1,0 -2,0 -4,0 -1,0 -2,0 -3,0l0 -15c1,0 1,0 2,0 1,0 2,0 3,0 3,0 5,-1 7,-2 2,-1 3,-4 3,-8l0 -79 51 0 0 104 -16 0 0 -89zm44 73l0 16 -16 0 0 -16 16 0zm51 16l-17 0 0 -104 44 0 0 15 -27 0 0 89zm49 -24c0,3 1,6 2,8 2,1 4,2 6,2 3,0 5,-1 6,-2 2,-2 3,-5 3,-8l0 -56c0,-4 -1,-7 -3,-8 -1,-2 -3,-3 -6,-3 -2,0 -4,1 -6,3 -1,1 -2,4 -2,8l0 56zm-16 -55c0,-9 2,-15 6,-20 4,-4 10,-6 18,-6 8,0 14,2 19,6 4,5 6,11 6,20l0 54c0,8 -2,14 -6,19 -5,4 -11,7 -19,7 -8,0 -14,-3 -18,-7 -4,-5 -6,-11 -6,-19l0 -54zm105 -10l-19 0 0 63c0,5 0,9 -2,13 -1,3 -3,6 -5,8 -2,1 -5,3 -7,4 -3,0 -6,1 -9,1 -2,0 -3,0 -4,0 -1,0 -3,0 -4,0l0 -15c1,0 2,0 3,0 1,0 2,0 3,0 2,0 4,-1 6,-2 2,-1 3,-4 3,-8l0 -79 51 0 0 104 -16 0 0 -89zm43 65c0,3 1,6 2,8 2,1 4,2 7,2 2,0 4,-1 6,-2 1,-2 2,-5 2,-8l0 -56c0,-4 -1,-7 -2,-8 -2,-2 -4,-3 -6,-3 -3,0 -5,1 -7,3 -1,1 -2,4 -2,8l0 56zm-16 -55c0,-9 2,-15 6,-20 4,-4 11,-6 19,-6 8,0 14,2 18,6 4,5 6,11 6,20l0 54c0,8 -2,14 -6,19 -4,4 -10,7 -18,7 -8,0 -15,-3 -19,-7 -4,-5 -6,-11 -6,-19l0 -54zm84 -25c9,0 15,2 19,6 3,4 5,10 5,18l0 3c0,6 0,10 -2,14 -2,3 -5,6 -8,7 4,2 7,5 9,8 2,4 3,9 3,14l0 9c0,8 -2,14 -6,18 -4,4 -11,7 -19,7l-25 0 0 -104 24 0zm-8 57l0 32 9 0c3,0 5,-1 7,-3 1,-1 2,-4 2,-8l0 -9c0,-4 -1,-8 -3,-9 -1,-2 -4,-3 -8,-3l-7 0zm0 -42l0 27 6 0c3,0 6,-1 7,-2 2,-2 3,-5 3,-9l0 -6c0,-3 -1,-6 -2,-8 -1,-2 -3,-2 -6,-2l-8 0zm60 89l-16 0 0 -104 16 0 0 44 18 0 0 -44 17 0 0 104 -17 0 0 -45 -18 0 0 45zm99 0l-16 0 -3 -19 -20 0 -3 19 -15 0 17 -104 24 0 16 104zm-37 -33l16 0 -8 -53 -8 53zm45 33l0 -16 16 0 0 14 -8 16 -6 0 4 -14 -6 0zm83 -79c0,-4 -1,-7 -3,-9 -1,-2 -3,-3 -6,-3 -2,0 -4,1 -6,3 -1,1 -2,4 -2,8l0 11 -16 0 0 -10c0,-9 2,-15 6,-20 5,-4 11,-6 19,-6 8,0 14,2 18,6 4,5 6,11 6,20 0,5 -1,10 -3,15 -1,5 -4,9 -6,12 -3,4 -5,8 -8,11 -3,3 -6,6 -8,9 -3,2 -5,5 -6,8 -1,3 -2,6 -1,9l30 0 0 15 -47 0 0 -13c0,-5 1,-10 3,-14 1,-3 3,-7 6,-10 2,-3 5,-6 7,-9 3,-3 6,-6 8,-9 3,-3 5,-7 6,-10 2,-4 3,-9 3,-14zm41 55c0,3 1,6 2,8 2,1 4,2 6,2 3,0 5,-1 7,-2 1,-2 2,-5 2,-8l0 -56c0,-4 -1,-7 -2,-8 -2,-2 -4,-3 -7,-3 -2,0 -4,1 -6,3 -1,1 -2,4 -2,8l0 56zm-16 -55c0,-9 2,-15 6,-20 4,-4 10,-6 18,-6 8,0 15,2 19,6 4,5 6,11 6,20l0 54c0,8 -2,14 -6,19 -4,4 -11,7 -19,7 -8,0 -14,-3 -18,-7 -4,-5 -6,-11 -6,-19l0 -54zm75 55c0,3 0,6 2,8 1,1 3,2 6,2 3,0 5,-1 6,-2 2,-2 3,-5 3,-8l0 -56c0,-4 -1,-7 -3,-8 -1,-2 -3,-3 -6,-3 -3,0 -5,1 -6,3 -2,1 -2,4 -2,8l0 56zm-17 -55c0,-9 2,-15 7,-20 4,-4 10,-6 18,-6 8,0 14,2 18,6 5,5 7,11 7,20l0 54c0,8 -2,14 -7,19 -4,4 -10,7 -18,7 -8,0 -14,-3 -18,-7 -5,-5 -7,-11 -7,-19l0 -54zm60 79l0 -16 16 0 0 14 -7 16 -7 0 5 -14 -7 0zm-849 120l-5 9 0 32 -16 0 0 -103 16 0 0 45 22 -45 16 0 -23 46 23 57 -17 0 -16 -41zm55 17c0,4 1,7 2,8 2,2 4,3 6,3 3,0 5,-1 6,-3 2,-1 3,-4 3,-8l0 -56c0,-3 -1,-6 -3,-7 -1,-2 -3,-3 -6,-3 -2,0 -4,1 -6,3 -1,1 -2,4 -2,7l0 56zm-16 -55c0,-8 2,-14 6,-19 4,-4 10,-7 18,-7 8,0 14,3 19,7 4,5 6,11 6,19l0 54c0,9 -2,15 -6,20 -5,4 -11,6 -19,6 -8,0 -14,-2 -18,-6 -4,-5 -6,-11 -6,-20l0 -54zm83 -24c9,0 15,2 19,6 4,4 6,11 6,19l0 14c0,8 -2,14 -6,19 -4,4 -10,6 -19,6l-7 0 0 39 -17 0 0 -103 24 0zm-7 14l0 36 7 0c3,0 5,-1 6,-3 2,-1 2,-4 2,-7l0 -16c0,-4 0,-6 -2,-8 -1,-1 -3,-2 -6,-2l-7 0zm55 89l-16 0 0 -103 51 0 0 103 -16 0 0 -89 -19 0 0 89zm52 -15c1,1 2,1 3,1 1,0 1,0 2,0 2,0 3,-1 4,-1 1,0 2,-1 3,-1 1,-1 1,-2 2,-4 0,-1 1,-3 1,-6l-24 -77 16 0 18 60 15 -60 16 0 -21 76c-2,7 -4,13 -6,16 -2,4 -4,7 -6,9 -2,1 -5,2 -7,2 -3,0 -5,1 -8,1 -2,0 -3,0 -4,0 -2,0 -3,-1 -4,-1l0 -15zm111 -23l0 13c0,9 -2,15 -6,20 -5,4 -11,6 -19,6 -8,0 -14,-2 -18,-6 -4,-5 -6,-11 -6,-20l0 -54c0,-8 2,-14 6,-19 4,-4 10,-7 18,-7 8,0 14,3 19,7 4,5 6,11 6,19l0 11 -16 0 0 -12c0,-3 0,-6 -2,-7 -2,-2 -4,-3 -6,-3 -3,0 -5,1 -6,3 -2,1 -3,4 -3,7l0 56c0,4 1,7 3,8 1,2 3,2 6,2 2,0 4,0 6,-2 2,-1 2,-4 2,-8l0 -14 16 0zm49 -26l8 0c8,0 14,2 18,6 4,4 6,11 6,19l0 14c0,8 -2,14 -6,19 -4,4 -10,6 -18,6l-24 0 0 -103 43 0 0 14 -27 0 0 25zm8 49c3,0 5,0 6,-2 1,-1 2,-4 2,-7l0 -16c0,-4 -1,-6 -2,-8 -1,-1 -3,-2 -6,-2l-8 0 0 35 8 0zm34 15l0 -15 16 0 0 14 -7 16 -7 0 4 -15 -6 0zm65 -24c0,4 1,7 3,8 1,2 3,3 6,3 2,0 4,-1 6,-3 1,-1 2,-4 2,-8l0 -56c0,-3 -1,-6 -2,-7 -2,-2 -4,-3 -6,-3 -3,0 -5,1 -6,3 -2,1 -3,4 -3,7l0 56zm-16 -55c0,-8 2,-14 6,-19 5,-4 11,-7 19,-7 8,0 14,3 18,7 4,5 6,11 6,19l0 54c0,9 -2,15 -6,20 -4,4 -10,6 -18,6 -8,0 -14,-2 -19,-6 -4,-5 -6,-11 -6,-20l0 -54zm88 61l-8 0c-8,0 -14,-2 -18,-6 -4,-5 -6,-11 -6,-20l0 -28c0,-8 2,-15 6,-19 4,-4 10,-6 18,-6l8 0 0 -6 16 0 0 6 8 0c8,0 14,2 18,6 4,4 6,11 6,19l0 28c0,9 -2,15 -6,20 -4,4 -10,6 -18,6l-8 0 0 18 -16 0 0 -18zm16 -65l0 50 8 0c3,0 5,0 6,-2 1,-1 2,-4 2,-8l0 -30c0,-4 -1,-6 -2,-8 -1,-1 -3,-2 -6,-2l-8 0zm-24 0c-2,0 -4,1 -6,2 -1,2 -2,4 -2,8l0 30c0,4 1,7 2,8 2,2 4,2 6,2l8 0 0 -50 -8 0zm80 68l0 15 -15 0 0 -15 15 0zm43 -63c0,-5 0,-8 -2,-9 -1,-2 -3,-3 -6,-3 -3,0 -5,1 -6,3 -2,1 -2,4 -2,7l0 7 -16 0 0 -6c0,-8 2,-14 6,-19 4,-4 10,-7 18,-7 8,0 15,3 19,7 4,5 6,11 6,19l0 3c0,11 -4,18 -12,21 4,2 7,5 9,9 2,3 3,8 3,13l0 8c0,9 -2,15 -6,20 -4,4 -11,6 -19,6 -8,0 -14,-2 -18,-6 -4,-5 -6,-11 -6,-20l0 -8 16 0 0 9c0,4 0,7 2,8 1,2 3,3 6,3 3,0 5,-1 6,-3 2,-1 2,-4 2,-9l0 -8c0,-5 0,-8 -2,-10 -2,-2 -4,-3 -8,-3l-6 0 0 -15 7 0c3,0 5,-1 7,-3 2,-1 2,-4 2,-8l0 -6zm60 0c0,-5 -1,-8 -2,-9 -2,-2 -4,-3 -6,-3 -3,0 -5,1 -7,3 -1,1 -2,4 -2,7l0 12 -15 0 0 -11c0,-8 2,-14 6,-19 4,-4 10,-7 18,-7 8,0 14,3 18,7 4,5 6,11 6,19 0,6 -1,11 -2,16 -2,4 -4,8 -7,12 -2,4 -5,7 -8,10 -3,4 -6,7 -8,9 -2,3 -4,6 -6,9 -1,2 -1,5 -1,8l31 0 0 15 -47 0 0 -12c0,-6 1,-10 2,-14 2,-4 4,-7 6,-10 3,-4 5,-7 8,-9 3,-3 5,-6 8,-9 2,-4 4,-7 6,-11 1,-4 2,-8 2,-13zm-859 188c0,-3 1,-5 2,-8 1,-2 2,-5 4,-6 2,-2 4,-4 7,-5 2,-1 5,-1 8,-1 3,0 5,0 8,1 2,1 5,3 6,5 2,1 4,4 5,6 1,3 1,5 1,8 0,3 0,6 -1,8 -1,3 -3,5 -5,7 -1,2 -4,3 -6,4 -3,1 -5,2 -8,2 -3,0 -6,-1 -8,-2 -3,-1 -5,-2 -7,-4 -2,-2 -3,-4 -4,-7 -1,-2 -2,-5 -2,-8zm104 -52c8,0 14,2 18,6 4,4 6,10 6,18l0 4c0,5 -1,10 -3,13 -1,4 -4,6 -8,8 5,1 8,4 10,8 2,4 2,8 2,14l0 8c0,8 -2,15 -6,19 -4,4 -10,6 -18,6l-26 0 0 -104 25 0zm-9 57l0 32 10 0c2,0 5,-1 6,-2 1,-2 2,-4 2,-8l0 -9c0,-5 -1,-8 -2,-10 -2,-2 -5,-3 -8,-3l-8 0zm0 -42l0 28 7 0c3,0 5,-1 7,-3 2,-1 3,-4 3,-8l0 -6c0,-4 -1,-7 -2,-8 -2,-2 -4,-3 -7,-3l-8 0zm49 74c0,0 1,0 2,0 1,0 2,0 3,0 1,0 3,0 4,0 1,0 2,-1 3,-2 1,-1 1,-2 2,-3 0,-2 0,-3 0,-6l-23 -78 16 0 18 61 15 -61 16 0 -21 77c-2,7 -4,12 -6,16 -2,4 -4,7 -6,8 -2,2 -5,3 -7,3 -3,0 -6,0 -9,0 -1,0 -2,0 -4,0 -1,0 -2,0 -3,0l0 -15zm109 -74l-19 0 0 63c0,5 0,10 -2,13 -1,3 -3,6 -5,8 -2,2 -5,3 -7,4 -3,1 -6,1 -9,1 -2,0 -3,0 -4,0 -1,0 -3,0 -4,0l0 -15c1,0 2,0 3,0 1,0 2,0 3,0 2,0 4,0 6,-2 2,-1 3,-4 3,-8l0 -79 51 0 0 104 -16 0 0 -89zm44 73l0 16 -16 0 0 -16 16 0zm82 -23l0 14c0,9 -2,15 -6,19 -4,5 -10,7 -18,7 -8,0 -14,-2 -19,-7 -4,-4 -6,-10 -6,-19l0 -54c0,-8 2,-15 6,-19 5,-5 11,-7 19,-7 8,0 14,2 18,7 4,4 6,11 6,19l0 10 -16 0 0 -11c0,-4 0,-6 -2,-8 -1,-1 -3,-2 -6,-2 -3,0 -5,1 -6,2 -2,2 -2,4 -2,8l0 56c0,4 0,7 2,8 1,1 3,2 6,2 3,0 5,-1 6,-2 2,-1 2,-4 2,-8l0 -15 16 0zm32 -2l-5 9 0 32 -17 0 0 -104 17 0 0 46 21 -46 16 0 -22 47 22 57 -17 0 -15 -41zm54 17c0,4 1,7 3,8 1,2 3,2 6,2 2,0 4,0 6,-2 2,-1 2,-4 2,-8l0 -56c0,-4 0,-6 -2,-8 -2,-1 -4,-2 -6,-2 -3,0 -5,1 -6,2 -2,2 -3,4 -3,8l0 56zm-16 -55c0,-8 2,-15 6,-19 5,-5 11,-7 19,-7 8,0 14,2 18,7 4,4 7,11 7,19l0 54c0,9 -3,15 -7,19 -4,5 -10,7 -18,7 -8,0 -14,-2 -19,-7 -4,-4 -6,-10 -6,-19l0 -54zm85 -25c8,0 14,2 18,6 4,4 6,10 6,18l0 4c0,5 -1,10 -3,13 -2,4 -4,6 -8,8 5,1 8,4 10,8 1,4 2,8 2,14l0 8c0,8 -2,15 -6,19 -4,4 -10,6 -18,6l-26 0 0 -104 25 0zm-9 57l0 32 10 0c2,0 4,-1 6,-2 1,-2 2,-4 2,-8l0 -9c0,-5 -1,-8 -2,-10 -2,-2 -5,-3 -9,-3l-7 0zm0 -42l0 28 7 0c3,0 5,-1 7,-3 2,-1 2,-4 2,-8l0 -6c0,-4 0,-7 -2,-8 -1,-2 -3,-3 -6,-3l-8 0zm59 65c0,4 0,7 2,8 2,2 4,2 6,2 3,0 5,0 6,-2 2,-1 3,-4 3,-8l0 -56c0,-4 -1,-6 -3,-8 -1,-1 -3,-2 -6,-2 -2,0 -4,1 -6,2 -2,2 -2,4 -2,8l0 56zm-17 -55c0,-8 3,-15 7,-19 4,-5 10,-7 18,-7 8,0 14,2 19,7 4,4 6,11 6,19l0 54c0,9 -2,15 -6,19 -5,5 -11,7 -19,7 -8,0 -14,-2 -18,-7 -4,-4 -7,-10 -7,-19l0 -54zm84 -25c8,0 15,3 19,7 4,4 6,11 6,19l0 13c0,9 -2,15 -6,20 -4,4 -11,6 -19,6l-7 0 0 39 -17 0 0 -104 24 0zm-7 15l0 35 7 0c3,0 5,0 6,-2 2,-1 2,-4 2,-8l0 -15c0,-4 0,-6 -2,-8 -1,-1 -3,-2 -6,-2l-7 0zm54 65c0,4 1,7 2,8 2,2 4,2 6,2 3,0 5,0 6,-2 2,-1 3,-4 3,-8l0 -56c0,-4 -1,-6 -3,-8 -1,-1 -3,-2 -6,-2 -2,0 -4,1 -6,2 -1,2 -2,4 -2,8l0 56zm-17 -55c0,-8 3,-15 7,-19 4,-5 10,-7 18,-7 8,0 14,2 19,7 4,4 6,11 6,19l0 54c0,9 -2,15 -6,19 -5,5 -11,7 -19,7 -8,0 -14,-2 -18,-7 -4,-4 -7,-10 -7,-19l0 -54zm54 64c1,0 2,0 3,0 1,0 2,0 3,0 3,0 5,0 7,-2 1,-1 2,-4 2,-8l0 -79 52 0 0 89 8 0 0 27 -16 0 0 -12 -42 0 0 12 -17 0 0 -27zm32 -11c0,5 -1,8 -2,11l21 0 0 -74 -19 0 0 63zm67 26l-17 0 0 -104 14 0 0 62 17 -62 21 0 0 104 -15 0 0 -75 -20 75zm46 0l0 -16 16 0 0 14 -7 17 -7 0 5 -15 -7 0z"/>
   <path class="fil0" d="M956 589l0 9c0,4 0,7 2,8 1,1 3,2 6,2 3,0 5,-1 6,-2 2,-1 2,-4 2,-8l0 -23c0,-3 0,-6 -2,-8 -1,-1 -3,-2 -6,-2 -3,0 -5,1 -6,2 -2,2 -2,5 -2,8l0 3 -16 0 3 -60 43 0 0 15 -28 0 -2 25c4,-5 8,-8 15,-8 6,0 10,2 13,6 3,4 5,10 5,18l0 23c0,9 -2,15 -6,19 -4,5 -11,7 -19,7 -8,0 -14,-2 -18,-7 -4,-4 -6,-10 -6,-19l0 -8 16 0zm-926 143c0,-3 1,-6 2,-8 1,-3 2,-5 4,-7 2,-2 4,-3 7,-4 2,-1 5,-2 8,-2 3,0 5,1 8,2 2,1 5,2 6,4 2,2 4,4 5,7 1,2 1,5 1,8 0,3 0,5 -1,8 -1,3 -3,5 -5,7 -1,1 -4,3 -6,4 -3,1 -5,2 -8,2 -3,0 -6,-1 -8,-2 -3,-1 -5,-3 -7,-4 -2,-2 -3,-4 -4,-7 -1,-3 -2,-5 -2,-8zm100 10l-5 10 0 32 -16 0 0 -104 16 0 0 45 22 -45 16 0 -23 46 23 58 -17 0 -16 -42zm57 42l-17 0 0 -104 15 0 0 62 17 -62 20 0 0 104 -15 0 0 -75 -20 75zm93 -15l13 0 0 -89 16 0 0 104 -75 0 0 -104 16 0 0 89 13 0 0 -89 17 0 0 89zm58 15l-17 0 0 -104 15 0 0 62 16 -62 21 0 0 104 -15 0 0 -75 -20 75zm63 0l-16 0 0 -104 16 0 0 45 18 0 0 -45 17 0 0 104 -17 0 0 -45 -18 0 0 45zm47 -104l16 0 0 104 -16 0 0 -104zm53 0c8,0 14,2 18,6 4,4 6,10 6,18l0 4c0,5 -1,9 -3,13 -1,3 -4,6 -8,8 5,1 8,4 10,8 1,4 2,8 2,14l0 8c0,8 -2,14 -6,18 -4,5 -10,7 -18,7l-26 0 0 -104 25 0zm-9 57l0 32 10 0c2,0 5,-1 6,-2 1,-2 2,-4 2,-8l0 -9c0,-5 -1,-8 -2,-10 -2,-2 -5,-3 -8,-3l-8 0zm0 -42l0 27 7 0c3,0 5,-1 7,-2 2,-2 2,-5 2,-9l0 -5c0,-4 0,-7 -2,-9 -1,-1 -3,-2 -6,-2l-8 0zm91 50l0 14c0,8 -2,15 -6,19 -4,5 -10,7 -18,7 -8,0 -14,-2 -18,-7 -4,-4 -6,-11 -6,-19l0 -54c0,-8 2,-15 6,-19 4,-5 10,-7 18,-7 8,0 14,2 18,7 4,4 6,11 6,19l0 10 -15 0 0 -11c0,-4 -1,-6 -3,-8 -1,-2 -3,-2 -6,-2 -2,0 -4,0 -6,2 -1,2 -2,4 -2,8l0 56c0,4 1,6 2,8 2,1 4,2 6,2 3,0 5,-1 6,-2 2,-2 3,-4 3,-8l0 -15 15 0zm34 24c3,0 5,-1 6,-2 2,-2 2,-4 2,-8l0 -15c0,-4 0,-7 -2,-8 -1,-1 -3,-2 -6,-2l-7 0 0 35 7 0zm-23 15l0 -104 16 0 0 39 7 0c9,0 15,2 19,7 4,4 6,10 6,19l0 13c0,9 -2,15 -6,19 -4,5 -10,7 -19,7l-23 0zm77 -42l-6 10 0 32 -16 0 0 -104 16 0 0 45 22 -45 16 0 -23 46 23 58 -17 0 -15 -42zm92 42l-16 0 -3 -19 -20 0 -3 19 -15 0 17 -104 24 0 16 104zm-37 -33l16 0 -8 -53 -8 53zm45 33l0 -16 15 0 0 14 -7 17 -7 0 5 -15 -6 0zm82 -78c0,-5 0,-8 -2,-10 -2,-1 -4,-2 -6,-2 -3,0 -5,0 -6,2 -2,2 -3,4 -3,8l0 11 -15 0 0 -10c0,-8 2,-15 6,-19 4,-5 10,-7 18,-7 8,0 14,2 18,7 5,4 7,11 7,19 0,6 -1,11 -3,15 -2,5 -4,9 -6,13 -3,3 -6,7 -9,10 -3,3 -5,6 -8,9 -2,3 -4,5 -5,8 -2,3 -2,6 -2,9l31 0 0 15 -47 0 0 -13c0,-5 1,-9 2,-13 2,-4 4,-8 6,-11 3,-3 5,-6 8,-9 3,-3 6,-6 8,-9 2,-3 4,-7 6,-10 2,-4 2,-8 2,-13zm26 19l30 0 0 14 -30 0 0 -14zm93 59l-16 0 -3 -19 -20 0 -3 19 -15 0 17 -104 24 0 16 104zm-37 -33l16 0 -8 -53 -8 53zm-15 341l0 15 -16 0 0 -15 16 0zm-832 -88l0 40c0,3 1,6 2,7 2,2 4,3 7,3 2,0 4,-1 5,-2 2,-2 3,-4 3,-7l0 -41 16 0 0 103 -16 0 0 -40c-1,1 -3,1 -4,1 -2,1 -3,1 -5,1 -8,0 -14,-3 -18,-7 -4,-5 -6,-11 -6,-19l0 -39 16 0zm61 43l23 0 0 15 -23 0 0 30 29 0 0 15 -45 0 0 -103 45 0 0 14 -29 0 0 29zm62 -43c8,0 14,2 18,6 4,4 6,11 6,19l0 14c0,8 -2,14 -6,19 -4,4 -10,6 -18,6l-8 0 0 39 -16 0 0 -103 24 0zm-8 14l0 35 8 0c3,0 5,0 6,-2 1,-1 2,-4 2,-7l0 -16c0,-4 -1,-6 -2,-8 -1,-1 -3,-2 -6,-2l-8 0zm56 89l-16 0 0 -103 16 0 0 44 19 0 0 -44 16 0 0 103 -16 0 0 -44 -19 0 0 44zm47 -103l16 0 0 103 -16 0 0 -103zm53 0c8,0 14,2 18,5 4,4 6,10 6,18l0 4c0,5 -1,10 -3,13 -1,4 -4,6 -8,8 5,2 8,4 10,8 2,4 3,9 3,14l0 9c0,8 -2,14 -7,18 -4,4 -10,6 -18,6l-26 0 0 -103 25 0zm-8 57l0 31 9 0c3,0 5,0 6,-2 2,-1 2,-4 2,-8l0 -9c0,-5 -1,-8 -2,-10 -2,-2 -4,-2 -8,-2l-7 0zm0 -43l0 28 6 0c3,0 5,-1 7,-3 2,-1 3,-4 3,-8l0 -6c0,-4 -1,-6 -2,-8 -2,-2 -4,-3 -7,-3l-7 0zm60 29l22 0 0 15 -22 0 0 30 28 0 0 15 -45 0 0 -103 45 0 0 14 -28 0 0 29zm54 45l18 0 0 -88 17 0 0 88 8 0 0 27 -17 0 0 -12 -43 0 0 -103 17 0 0 88zm73 0c2,0 4,0 6,-2 1,-1 2,-4 2,-7l0 -16c0,-4 -1,-6 -2,-8 -2,-1 -4,-2 -6,-2l-8 0 0 35 8 0zm-24 15l0 -103 16 0 0 39 8 0c8,0 14,2 18,6 4,4 6,11 6,19l0 14c0,8 -2,14 -6,19 -4,4 -10,6 -18,6l-24 0zm77 -41l-5 9 0 32 -16 0 0 -103 16 0 0 45 22 -45 16 0 -23 46 23 57 -17 0 -16 -41zm92 41l-16 0 -3 -19 -20 0 -3 19 -15 0 17 -103 24 0 16 103zm-37 -33l16 0 -8 -52 -8 52zm83 9c0,4 0,7 2,8 1,2 4,3 6,3 3,0 5,-1 6,-3 2,-1 3,-4 3,-8l0 -56c0,-3 -1,-6 -3,-8 -1,-1 -3,-2 -6,-2 -2,0 -5,1 -6,2 -2,2 -2,5 -2,8l0 56zm-17 -55c0,-8 2,-14 7,-19 4,-4 10,-7 18,-7 8,0 14,3 18,7 5,5 7,11 7,19l0 54c0,9 -2,15 -7,20 -4,4 -10,6 -18,6 -8,0 -14,-2 -18,-6 -5,-5 -7,-11 -7,-20l0 -54zm77 15l7 0c8,0 14,2 18,6 4,4 6,11 6,19l0 14c0,8 -2,14 -6,19 -4,4 -10,6 -18,6l-24 0 0 -103 43 0 0 14 -26 0 0 25zm7 49c3,0 5,0 6,-2 2,-1 2,-4 2,-7l0 -16c0,-4 0,-6 -2,-8 -1,-1 -3,-2 -6,-2l-7 0 0 35 7 0zm80 -74l-19 0 0 63c0,6 -1,10 -2,13 -1,4 -3,6 -5,8 -2,2 -5,4 -8,4 -2,1 -5,2 -8,2 -2,0 -3,0 -4,0 -2,0 -3,-1 -4,-1l0 -15c1,1 2,1 2,1 1,0 2,0 3,0 3,0 5,-1 7,-2 2,-2 3,-4 3,-8l0 -79 51 0 0 103 -16 0 0 -89zm-703 199c0,-3 0,-5 1,-8 1,-2 3,-5 5,-6 2,-2 4,-4 6,-5 3,-1 5,-1 8,-1 3,0 6,0 8,1 3,1 5,3 7,5 2,1 3,4 4,6 1,3 2,5 2,8 0,3 -1,6 -2,8 -1,3 -2,5 -4,7 -2,2 -4,3 -7,4 -2,1 -5,2 -8,2 -3,0 -5,-1 -8,-2 -2,-1 -4,-2 -6,-4 -2,-2 -4,-4 -5,-7 -1,-2 -1,-5 -1,-8zm126 13l0 14c0,8 -2,15 -7,19 -4,5 -10,7 -18,7 -8,0 -14,-2 -18,-7 -4,-4 -6,-11 -6,-19l0 -54c0,-8 2,-15 6,-19 4,-5 10,-7 18,-7 8,0 14,2 18,7 5,4 7,11 7,19l0 10 -16 0 0 -11c0,-4 -1,-6 -2,-8 -2,-1 -4,-2 -6,-2 -3,0 -5,1 -6,2 -2,2 -3,4 -3,8l0 56c0,4 1,7 3,8 1,1 3,2 6,2 2,0 4,-1 6,-2 1,-1 2,-4 2,-8l0 -15 16 0zm26 23l0 16 -16 0 0 -16 16 0zm46 -14l11 -74 23 0 0 104 -15 0 0 -74 -12 74 -15 0 -12 -73 0 73 -14 0 0 -104 22 0 12 74zm98 30l-16 0 -3 -19 -20 0 -3 19 -15 0 17 -104 24 0 16 104zm-37 -33l16 0 -8 -52 -8 52zm79 3l12 -74 22 0 0 104 -15 0 0 -74 -11 74 -16 0 -12 -73 0 73 -14 0 0 -104 22 0 12 74zm99 30l-17 0 -3 -19 -20 0 -2 19 -15 0 16 -104 24 0 17 104zm-38 -33l16 0 -8 -52 -8 52zm50 -71l17 0 0 104 -17 0 0 -104zm4 -20l0 15 -15 0 0 -15 15 0zm24 0l0 15 -15 0 0 -15 15 0zm30 20c9,0 15,2 19,6 4,4 6,10 6,18l0 4c0,5 -1,10 -3,13 -2,3 -4,6 -8,8 5,1 8,4 9,8 2,4 3,8 3,14l0 8c0,8 -2,14 -6,19 -4,4 -10,6 -19,6l-25 0 0 -104 24 0zm-8 57l0 32 9 0c3,0 5,-1 7,-2 1,-2 2,-4 2,-8l0 -9c0,-5 -1,-8 -3,-10 -1,-2 -4,-3 -8,-3l-7 0zm0 -42l0 28 7 0c3,0 5,-1 7,-3 1,-1 2,-4 2,-8l0 -6c0,-4 0,-7 -2,-8 -1,-2 -3,-3 -6,-3l-8 0zm60 74l19 0 0 -89 16 0 0 89 9 0 0 27 -17 0 0 -12 -43 0 0 -104 16 0 0 89zm49 -89l17 0 0 104 -17 0 0 -104zm29 104l0 -16 15 0 0 14 -7 17 -6 0 4 -15 -6 0zm-751 58c8,0 14,2 18,6 4,4 6,10 6,18l0 4c0,5 -1,9 -3,13 -2,3 -4,6 -8,7 5,2 8,5 10,9 1,3 2,8 2,14l0 8c0,8 -2,14 -6,18 -4,5 -10,7 -18,7l-26 0 0 -104 25 0zm-9 57l0 32 10 0c2,0 4,-1 6,-2 1,-2 2,-4 2,-8l0 -9c0,-5 -1,-8 -2,-10 -2,-2 -5,-3 -9,-3l-7 0zm0 -42l0 27 7 0c3,0 5,-1 7,-2 1,-2 2,-5 2,-9l0 -5c0,-4 0,-7 -2,-9 -1,-1 -3,-2 -6,-2l-8 0zm48 74c1,0 2,0 3,0 1,0 2,0 3,0 1,0 2,0 4,0 1,-1 2,-1 3,-2 0,-1 1,-2 1,-3 1,-2 1,-4 1,-6l-24 -78 17 0 18 61 14 -61 17 0 -22 76c-1,8 -3,13 -5,17 -2,4 -4,6 -6,8 -3,2 -5,3 -7,3 -3,0 -6,0 -9,0 -1,0 -3,0 -4,0 -1,0 -2,0 -4,0l0 -15zm110 -74l-19 0 0 63c0,5 -1,9 -2,13 -1,3 -3,6 -5,8 -2,2 -5,3 -8,4 -2,1 -5,1 -8,1 -2,0 -3,0 -4,0 -2,0 -3,0 -4,0l0 -15c1,0 2,0 3,0 1,0 1,0 2,0 3,0 5,-1 7,-2 2,-1 3,-4 3,-8l0 -79 51 0 0 104 -16 0 0 -89zm44 73l0 16 -16 0 0 -16 16 0zm33 -26l-5 10 0 32 -16 0 0 -104 16 0 0 45 22 -45 16 0 -23 46 23 58 -17 0 -16 -42zm55 18c0,4 1,6 2,8 2,1 4,2 6,2 3,0 5,-1 6,-2 2,-2 3,-4 3,-8l0 -56c0,-4 -1,-7 -3,-8 -1,-2 -3,-2 -6,-2 -2,0 -4,0 -6,2 -1,1 -2,4 -2,8l0 56zm-17 -55c0,-8 3,-15 7,-19 4,-5 10,-7 18,-7 8,0 14,2 19,7 4,4 6,11 6,19l0 54c0,8 -2,15 -6,19 -5,5 -11,7 -19,7 -8,0 -14,-2 -18,-7 -4,-4 -7,-11 -7,-19l0 -54zm77 14l7 0c9,0 15,2 19,7 4,4 6,10 6,19l0 13c0,8 -2,15 -6,19 -4,5 -10,7 -19,7l-24 0 0 -104 43 0 0 15 -26 0 0 24zm7 50c3,0 5,-1 6,-2 2,-2 2,-4 2,-8l0 -15c0,-4 0,-7 -2,-8 -1,-1 -3,-2 -6,-2l-7 0 0 35 7 0zm51 15l-17 0 0 -104 15 0 0 62 16 -62 21 0 0 104 -15 0 0 -75 -20 75zm93 -89l-19 0 0 63c0,5 -1,9 -2,13 -2,3 -3,6 -6,8 -2,2 -4,3 -7,4 -3,1 -6,1 -9,1 -1,0 -3,0 -4,0 -1,0 -2,0 -4,0l0 -15c1,0 2,0 3,0 1,0 2,0 3,0 3,0 5,-1 7,-2 1,-1 2,-4 2,-8l0 -79 52 0 0 104 -16 0 0 -89zm51 0c-3,0 -5,1 -6,2 -1,2 -2,5 -2,9l0 10c0,4 1,7 3,8 1,2 4,3 7,3l6 0 0 -32 -8 0zm-26 89c1,-2 1,-4 1,-6 0,-2 1,-4 1,-7l0 -16c0,-5 0,-10 2,-14 1,-4 4,-6 8,-8 -7,-3 -10,-10 -10,-21l0 -8c0,-8 2,-14 5,-18 4,-4 10,-6 19,-6l24 0 0 104 -16 0 0 -42 -6 0c-3,0 -6,0 -8,2 -1,2 -2,6 -2,11l0 16c0,2 0,4 0,5 0,2 0,3 -1,4 0,0 0,1 0,2 0,0 0,1 -1,2l-16 0zm79 0l-17 0 0 -104 17 0 0 44 18 0 0 -44 17 0 0 104 -17 0 0 -45 -18 0 0 45zm94 -39l0 14c0,8 -2,15 -7,19 -4,5 -10,7 -18,7 -8,0 -14,-2 -18,-7 -4,-4 -6,-11 -6,-19l0 -54c0,-8 2,-15 6,-19 4,-5 10,-7 18,-7 8,0 14,2 18,7 5,4 7,11 7,19l0 10 -16 0 0 -11c0,-4 -1,-7 -2,-8 -2,-2 -4,-2 -6,-2 -3,0 -5,0 -6,2 -2,1 -3,4 -3,8l0 56c0,4 1,6 3,8 1,1 3,2 6,2 2,0 4,-1 6,-2 1,-2 2,-4 2,-8l0 -15 16 0zm34 24c3,0 4,-1 6,-2 1,-2 2,-4 2,-8l0 -15c0,-4 -1,-7 -2,-8 -2,-1 -3,-2 -6,-2l-8 0 0 35 8 0zm-24 15l0 -104 16 0 0 39 8 0c8,0 14,2 18,7 4,4 6,10 6,19l0 13c0,8 -2,15 -6,19 -4,5 -10,7 -18,7l-24 0zm77 -42l-5 10 0 32 -16 0 0 -104 16 0 0 45 22 -45 16 0 -23 46 23 58 -17 0 -16 -42zm55 18c0,4 1,6 2,8 2,1 4,2 6,2 3,0 5,-1 6,-2 2,-2 3,-4 3,-8l0 -56c0,-4 -1,-7 -3,-8 -1,-2 -3,-2 -6,-2 -2,0 -4,0 -6,2 -1,1 -2,4 -2,8l0 56zm-17 -55c0,-8 3,-15 7,-19 4,-5 10,-7 18,-7 8,0 14,2 19,7 4,4 6,11 6,19l0 54c0,8 -2,15 -6,19 -5,5 -11,7 -19,7 -8,0 -14,-2 -18,-7 -4,-4 -7,-11 -7,-19l0 -54zm66 -25l16 0 0 104 -16 0 0 -104zm4 -20l0 15 -16 0 0 -15 16 0zm23 0l0 15 -15 0 0 -15 15 0zm-717 207c0,-4 -1,-8 -2,-9 -2,-2 -4,-3 -6,-3 -3,0 -5,1 -6,3 -2,1 -3,4 -3,8l0 11 -15 0 0 -10c0,-9 2,-15 6,-20 4,-4 10,-6 18,-6 8,0 14,2 18,6 4,5 7,11 7,20 0,5 -1,10 -3,15 -2,4 -4,9 -6,12 -3,4 -6,8 -9,11 -3,3 -5,6 -8,9 -2,2 -4,5 -5,8 -2,3 -2,6 -2,9l31 0 0 14 -47 0 0 -12c0,-5 1,-10 2,-14 2,-3 4,-7 6,-10 3,-3 5,-6 8,-9 3,-3 5,-6 8,-9 2,-3 4,-7 6,-11 1,-3 2,-8 2,-13zm26 19l29 0 0 15 -29 0 0 -15zm93 59l-16 0 -3 -18 -20 0 -3 18 -15 0 17 -103 24 0 16 103zm-37 -32l16 0 -8 -53 -8 53zm45 32l0 -15 15 0 0 14 -7 16 -6 0 4 -15 -6 0zm81 -78c0,-4 -1,-8 -2,-9 -2,-2 -4,-3 -7,-3 -2,0 -4,1 -6,3 -1,1 -2,4 -2,8l0 11 -15 0 0 -10c0,-9 2,-15 6,-20 4,-4 10,-6 18,-6 8,0 14,2 18,6 4,5 6,11 6,20l0 2c0,11 -4,19 -11,22 4,1 7,4 9,8 1,4 2,8 2,13l0 9c0,8 -2,14 -6,19 -4,4 -10,7 -18,7 -8,0 -14,-3 -18,-7 -4,-5 -6,-11 -6,-19l0 -13 15 0 0 14c0,3 1,6 2,8 2,1 4,2 6,2 3,0 5,-1 7,-3 1,-1 2,-4 2,-9l0 -8c0,-5 -1,-8 -3,-10 -1,-2 -4,-3 -8,-3l-2 0 0 -15 3 0c3,0 6,-1 7,-2 2,-2 3,-5 3,-9l0 -6zm43 78l-16 0 0 -103 16 0 0 44 18 0 0 -44 17 0 0 103 -17 0 0 -44 -18 0 0 44zm78 -78c0,-4 -1,-8 -3,-9 -1,-2 -3,-3 -6,-3 -2,0 -4,1 -6,3 -1,1 -2,4 -2,8l0 11 -16 0 0 -10c0,-9 2,-15 6,-20 5,-4 11,-6 19,-6 8,0 14,2 18,6 4,5 6,11 6,20l0 2c0,11 -4,19 -11,22 4,1 7,4 8,8 2,4 3,8 3,13l0 9c0,8 -2,14 -6,19 -4,4 -10,7 -18,7 -8,0 -14,-3 -19,-7 -4,-5 -6,-11 -6,-19l0 -13 16 0 0 14c0,3 1,6 2,8 2,1 4,2 6,2 3,0 5,-1 6,-3 2,-1 3,-4 3,-9l0 -8c0,-5 -1,-8 -3,-10 -2,-2 -4,-3 -8,-3l-3 0 0 -15 4 0c3,0 5,-1 7,-2 2,-2 3,-5 3,-9l0 -6zm64 3l0 75 -15 0 0 -103 21 0 16 62 0 -62 36 0 0 12 -21 0 0 91 -17 0 -20 -75zm79 63l0 12 -36 0 0 -12 36 0zm-36 -42c0,-7 1,-13 4,-17 4,-4 8,-6 14,-6 6,0 10,2 13,6 3,4 5,10 5,17l0 7c0,8 -2,13 -5,17 -3,4 -7,6 -13,6 -6,0 -10,-2 -14,-6 -3,-4 -4,-9 -4,-17l0 -7zm12 8c0,3 0,6 1,7 1,1 3,2 5,2 2,0 3,-1 4,-2 1,-1 2,-4 2,-7l0 -9c0,-3 -1,-5 -2,-7 -1,-1 -2,-2 -4,-2 -2,0 -4,1 -5,2 -1,2 -1,4 -1,7l0 9zm65 -32c0,-4 -1,-8 -3,-9 -1,-2 -3,-3 -6,-3 -2,0 -4,1 -6,3 -1,1 -2,4 -2,8l0 11 -16 0 0 -10c0,-9 2,-15 7,-20 4,-4 10,-6 18,-6 8,0 14,2 18,6 4,5 6,11 6,20 0,5 -1,10 -3,15 -1,4 -3,9 -6,12 -3,4 -5,8 -8,11 -3,3 -6,6 -8,9 -3,2 -5,5 -6,8 -1,3 -2,6 -1,9l31 0 0 14 -48 0 0 -12c0,-5 1,-10 3,-14 1,-3 3,-7 6,-10 2,-3 5,-6 8,-9 2,-3 5,-6 7,-9 3,-3 5,-7 6,-11 2,-3 3,-8 3,-13z"/>
  </g>
 </g>
</svg>
