<?xml version="1.0" encoding="UTF-8"?>
<!DOCTYPE svg PUBLIC "-//W3C//DTD SVG 1.1//EN" "http://www.w3.org/Graphics/SVG/1.1/DTD/svg11.dtd">
<!-- Creator: CorelDRAW X7 -->
<svg xmlns="http://www.w3.org/2000/svg" xml:space="preserve" width="185.336mm" height="35.5212mm" version="1.1" style="shape-rendering:geometricPrecision; text-rendering:geometricPrecision; image-rendering:optimizeQuality; fill-rule:evenodd; clip-rule:evenodd"
viewBox="0 0 17638 3380"
 xmlns:xlink="http://www.w3.org/1999/xlink">
 <defs>
  <style type="text/css">
   <![CDATA[
    .fil2 {fill:#D5251E}
    .fil1 {fill:#D7251B}
    .fil0 {fill:#FAFAF9}
   ]]>
  </style>
 </defs>
 <g id="Слой_x0020_1">
  <metadata id="CorelCorpID_0Corel-Layer"/>
  <path class="fil0" d="M366 366c261,-37 705,-9 986,-11 196,0 317,-35 428,69l1185 1257c-331,322 -656,640 -989,971 -359,358 -242,319 -653,318 -274,0 -705,26 -964,-10l7 -2594zm12754 1310c-71,-181 -1129,-1131 -1242,-1317 392,0 2343,-43 2567,17 110,30 1150,1098 1301,1270 -66,97 -1209,1285 -1293,1313 -67,22 -2427,25 -2594,0 281,-312 1117,-1087 1261,-1283zm4126 -6c-293,-396 -1119,-1073 -1243,-1313l1286 -11 -5 2626 -1274 10c41,-80 3,-13 42,-65l1194 -1247zm-8342 6c-43,-89 -544,-579 -628,-662 -141,-139 -536,-513 -621,-652l1899 4c223,1 613,-52 748,62l1221 1218c-72,138 -542,568 -689,721 -121,126 -224,235 -345,361 -163,170 -135,242 -435,242l-2411 -2c50,-111 1091,-1130 1261,-1292zm-5474 -1314l2244 5c469,3 416,54 657,298 193,196 863,810 972,981 -91,133 -288,316 -402,434 -934,966 -668,890 -1521,890l-1966 -15 1285 -1290 -1269 -1303zm-3430 3018l17638 0 0 -3380 -17638 0 0 3380z"/>
  <path class="fil1" d="M13120 1676c-144,196 -980,971 -1261,1283 167,25 2527,22 2594,0 84,-28 1227,-1216 1293,-1313 -151,-172 -1191,-1240 -1301,-1270 -224,-60 -2175,-17 -2567,-17 113,186 1171,1136 1242,1317z"/>
  <path class="fil1" d="M8904 1676c-170,162 -1211,1181 -1261,1292l2411 2c300,0 272,-72 435,-242 121,-126 224,-235 345,-361 147,-153 617,-583 689,-721l-1221 -1218c-135,-114 -525,-61 -748,-62l-1899 -4c85,139 480,513 621,652 84,83 585,573 628,662z"/>
  <path class="fil1" d="M4699 1665l-1285 1290 1966 15c853,0 587,76 1521,-890 114,-118 311,-301 402,-434 -109,-171 -779,-785 -972,-981 -241,-244 -188,-295 -657,-298l-2244 -5 1269 1303z"/>
  <path class="fil1" d="M359 2960c259,36 690,10 964,10 411,1 294,40 653,-318 333,-331 658,-649 989,-971l-1185 -1257c-111,-104 -232,-69 -428,-69 -281,2 -725,-26 -986,11l-7 2594z"/>
  <path class="fil2" d="M17246 1670l-1194 1247c-39,52 -1,-15 -42,65l1274 -10 5 -2626 -1286 11c124,240 950,917 1243,1313z"/>
 </g>
</svg>
