<?xml version="1.0" encoding="UTF-8"?>
<!DOCTYPE svg PUBLIC "-//W3C//DTD SVG 1.1//EN" "http://www.w3.org/Graphics/SVG/1.1/DTD/svg11.dtd">
<!-- Creator: CorelDRAW X7 -->
<svg xmlns="http://www.w3.org/2000/svg" xml:space="preserve" width="99mm" height="31.0118mm" version="1.1" style="shape-rendering:geometricPrecision; text-rendering:geometricPrecision; image-rendering:optimizeQuality; fill-rule:evenodd; clip-rule:evenodd"
viewBox="0 0 27195 8519"
 xmlns:xlink="http://www.w3.org/1999/xlink">
 <defs>
  <style type="text/css">
   <![CDATA[
    .fil0 {fill:#E31E24}
    .fil1 {fill:#FEFEFE;fill-rule:nonzero}
   ]]>
  </style>
 </defs>
 <g id="Слой_x0020_1">
  <metadata id="CorelCorpID_0Corel-Layer"/>
  <rect class="fil0" width="27195" height="8519"/>
  <path class="fil1" d="M10142 2633l-256 0 0 -1629 807 0 0 1629 -261 0 0 -1396 -290 0 0 1396zm737 -1629l256 0 0 1629 -256 0 0 -1629zm349 1396c14,2 28,2 44,2 15,0 30,0 44,0 40,0 75,-10 104,-30 28,-20 43,-62 43,-126l0 -1242 809 0 0 1396 130 0 0 419 -260 0 0 -186 -654 0 0 186 -260 0 0 -419zm490 -172c0,68 -7,125 -21,172l319 0 0 -1163 -298 0 0 991zm1045 405l-256 0 0 -1629 677 0 0 233 -421 0 0 1396zm770 -375c0,59 12,100 36,124 24,25 56,37 96,37 40,0 73,-12 97,-37 24,-24 36,-65 36,-124l0 -879c0,-59 -12,-100 -36,-125 -24,-24 -57,-36 -97,-36 -40,0 -72,12 -96,36 -24,25 -36,66 -36,125l0 879zm-256 -863c0,-132 33,-233 100,-303 66,-71 162,-106 288,-106 126,0 222,35 288,106 67,70 101,171 101,303l0 847c0,132 -34,233 -101,303 -66,71 -162,106 -288,106 -126,0 -222,-35 -288,-106 -67,-70 -100,-171 -100,-303l0 -847zm870 -391l790 0 0 233 -267 0 0 1396 -256 0 0 -1396 -267 0 0 -233zm1139 1254c0,59 12,100 36,124 24,25 56,37 97,37 40,0 72,-12 96,-37 24,-24 36,-65 36,-124l0 -879c0,-59 -12,-100 -36,-125 -24,-24 -56,-36 -96,-36 -41,0 -73,12 -97,36 -24,25 -36,66 -36,125l0 879zm-256 -863c0,-132 34,-233 100,-303 67,-71 163,-106 289,-106 125,0 221,35 288,106 67,70 100,171 100,303l0 847c0,132 -33,233 -100,303 -67,71 -163,106 -288,106 -126,0 -222,-35 -289,-106 -66,-70 -100,-171 -100,-303l0 -847zm1326 -391c133,0 230,31 290,94 59,62 89,155 89,281l0 58c0,84 -13,153 -39,207 -27,54 -69,95 -126,121 70,26 119,69 148,129 28,60 43,133 43,220l0 132c0,126 -33,222 -98,288 -65,66 -162,99 -291,99l-402 0 0 -1629 386 0zm-130 896l0 500 146 0c44,0 77,-12 99,-35 23,-23 34,-65 34,-126l0 -141c0,-76 -13,-128 -38,-156 -26,-28 -68,-42 -127,-42l-114 0zm0 -663l0 430 100 0c48,0 85,-12 113,-37 27,-25 40,-70 40,-135l0 -90c0,-59 -10,-102 -31,-128 -21,-27 -54,-40 -99,-40l-123 0zm1021 747l-79 148 0 501 -256 0 0 -1629 256 0 0 710 339 -710 251 0 -355 726 355 903 -262 0 -249 -649zm1453 649l-258 0 -44 -296 -314 0 -44 296 -235 0 260 -1629 375 0 260 1629zm-583 -517l246 0 -123 -823 -123 823zm-5899 1428c134,0 230,31 290,93 60,62 90,156 90,282l0 58c0,84 -14,153 -40,207 -26,54 -68,94 -126,121 70,26 119,69 148,129 29,60 43,133 43,220l0 132c0,126 -32,222 -98,287 -65,66 -162,99 -290,99l-403 0 0 -1628 386 0zm-130 896l0 500 147 0c43,0 76,-12 99,-35 22,-23 33,-65 33,-126l0 -142c0,-76 -13,-128 -38,-155 -26,-28 -68,-42 -127,-42l-114 0zm0 -663l0 430 100 0c48,0 86,-12 113,-37 27,-25 41,-70 41,-135l0 -91c0,-59 -11,-101 -32,-128 -21,-26 -54,-39 -99,-39l-123 0zm919 1021c0,59 12,100 36,124 24,24 56,36 96,36 41,0 73,-12 97,-36 24,-24 36,-65 36,-124l0 -879c0,-59 -12,-101 -36,-125 -24,-24 -56,-36 -97,-36 -40,0 -72,12 -96,36 -24,24 -36,66 -36,125l0 879zm-256 -863c0,-132 33,-233 100,-304 67,-70 163,-105 288,-105 126,0 222,35 289,105 67,71 100,172 100,304l0 847c0,131 -33,233 -100,303 -67,71 -163,106 -289,106 -125,0 -221,-35 -288,-106 -67,-70 -100,-172 -100,-303l0 -847zm847 1005c14,1 28,2 44,2 15,0 30,0 44,0 40,0 75,-10 104,-30 28,-20 43,-62 43,-126l0 -1242 809 0 0 1396 130 0 0 418 -260 0 0 -186 -654 0 0 186 -260 0 0 -418zm490 -172c0,68 -7,125 -21,172l319 0 0 -1163 -298 0 0 991zm789 -1224l256 0 0 1628 -256 0 0 -1628zm525 0l256 0 0 1628 -256 0 0 -1628zm61 -316l0 237 -237 0 0 -237 237 0zm372 0l0 237 -237 0 0 -237 237 0zm479 316c134,0 230,31 290,93 59,62 89,156 89,282l0 58c0,84 -13,153 -39,207 -27,54 -68,94 -126,121 70,26 119,69 148,129 29,60 43,133 43,220l0 132c0,126 -33,222 -98,287 -65,66 -162,99 -291,99l-402 0 0 -1628 386 0zm-130 896l0 500 146 0c44,0 77,-12 99,-35 23,-23 34,-65 34,-126l0 -142c0,-76 -13,-128 -38,-155 -26,-28 -68,-42 -127,-42l-114 0zm0 -663l0 430 100 0c48,0 86,-12 113,-37 27,-25 40,-70 40,-135l0 -91c0,-59 -10,-101 -31,-128 -21,-26 -54,-39 -99,-39l-123 0zm-5305 3286l-79 149 0 500 -256 0 0 -1628 256 0 0 709 339 -709 251 0 -355 726 355 902 -262 0 -249 -649zm1453 649l-258 0 -44 -295 -314 0 -44 295 -235 0 260 -1628 375 0 260 1628zm-583 -516l246 0 -123 -824 -123 824zm630 -1112l791 0 0 233 -268 0 0 1395 -256 0 0 -1395 -267 0 0 -233zm1163 686l351 0 0 233 -351 0 0 476 442 0 0 233 -698 0 0 -1628 698 0 0 233 -442 0 0 453zm849 942l-256 0 0 -1628 677 0 0 233 -421 0 0 1395zm770 -374c0,59 12,100 36,124 24,24 56,36 96,36 40,0 73,-12 97,-36 24,-24 36,-65 36,-124l0 -880c0,-58 -12,-100 -36,-124 -24,-24 -57,-36 -97,-36 -40,0 -72,12 -96,36 -24,24 -36,66 -36,124l0 880zm-256 -863c0,-132 33,-233 100,-304 66,-70 163,-106 288,-106 126,0 222,36 289,106 66,71 100,172 100,304l0 846c0,132 -34,233 -100,304 -67,70 -163,106 -289,106 -125,0 -222,-36 -288,-106 -67,-71 -100,-172 -100,-304l0 -846zm1316 -391c129,0 225,34 287,102 63,69 95,169 95,300l0 212c0,132 -32,232 -95,300 -62,68 -158,102 -287,102l-121 0 0 612 -256 0 0 -1628 377 0zm-121 233l0 551 121 0c40,0 71,-11 93,-33 22,-21 33,-62 33,-121l0 -244c0,-59 -11,-99 -33,-121 -22,-22 -53,-32 -93,-32l-121 0zm619 -233l256 0 0 1628 -256 0 0 -1628zm705 1628l-263 0 0 -1628 228 0 0 975 262 -975 321 0 0 1628 -230 0 0 -1179 -318 1179zm428 -1909l0 190 -563 0 0 -190 563 0z"/>
 </g>
</svg>
